<?xml version="1.0" standalone="no"?><!DOCTYPE svg PUBLIC "-//W3C//DTD SVG 1.1//EN" "http://www.w3.org/Graphics/SVG/1.1/DTD/svg11.dtd"><svg class="icon" width="200px" height="200.00px" viewBox="0 0 1024 1024" version="1.1" xmlns="http://www.w3.org/2000/svg"><path d="M565.6 502.6H455.1c-3.8 0-6.8-5.1-5.4-8.5 5.8-14.5 18.2-46.3 17.9-47.6-0.9 0.3-2.5 0.9-4.8 2.4-7.2 4.8-16.5 10.2-27.3 16.4l-3.4 2c-15.2 8.8-32.5 18.8-47.8 29.7-16.8 11.9-24.7 19.7-24.7 28.1 0.1 5.7 4.2 13.8 12.6 19.5 22.6 15.4 85 48.2 97.7 54.8h0.2c0.5-0.7-14.1-33.5-20.8-48.5-1.6-3.5 1.8-9 5.8-9l110.8-0.1c19.6 2.5 56.6 19.4 56.6 57.7 0 33.3-29.9 59.1-57.4 59.3h-132c-11.8 0-21 7.9-21 19.6 0 11.6 9.6 19.6 21.4 19.6h132.1c4.8 0 47.2-0.8 75.3-28.8 16.9-16.8 25.3-40.1 24.8-69.2v-0.9c0-0.3 1.1-42.8-27.3-71.6-17.4-17.6-41.5-24.9-72.8-24.9z"  /><path d="M138 449.9v-91.5h750v430.1c0 15-11.2 44.4-45.5 44.4H181.4c-15.3 0-43.4-26.9-43.4-41.9V449.9zM98.1 590.5v212.8c0 37.4 30.9 67.6 69.1 67.6h691.6c38.2 0 69.1-30.3 69.1-67.6l-0.4-453.6c0-25.2-7.2-49.8-20.7-71.1l-59.2-93.5c-12.6-20-34.9-32-58.8-32H237.4c-24 0-46.1 12.1-58.8 32L119 278.5c-13.8 21.5-21 46.3-21 71.7V450l0.1 140.5z m105.5-369.4c15.4-27.6 32.3-28.9 41.9-28.9h543.6c9.6 0 21.3 9 26.3 16.9l70.8 110.2-745.9-0.2 63.3-98z"  /></svg>