<?xml version="1.0" standalone="no"?><!DOCTYPE svg PUBLIC "-//W3C//DTD SVG 1.1//EN" "http://www.w3.org/Graphics/SVG/1.1/DTD/svg11.dtd"><svg class="icon" width="200px" height="200.00px" viewBox="0 0 1024 1024" version="1.1" xmlns="http://www.w3.org/2000/svg"><path d="M847.36 952.32 355.84 952.32c-15.36 0-25.6-10.24-25.6-25.6s10.24-25.6 25.6-25.6l491.52 0c28.16 0 53.76-10.24 71.68-30.72s30.72-46.08 28.16-71.68l-5.12-373.76c0-15.36 10.24-25.6 25.6-25.6l0 0c12.8 0 25.6 10.24 25.6 25.6L998.4 798.72c0 40.96-15.36 79.36-43.52 110.08C926.72 936.96 888.32 952.32 847.36 952.32zM53.76 604.16c-12.8 0-25.6-10.24-25.6-25.6L23.04 204.8c0-40.96 15.36-79.36 43.52-110.08C97.28 66.56 135.68 51.2 176.64 51.2l491.52 0c15.36 0 25.6 10.24 25.6 25.6s-10.24 25.6-25.6 25.6L176.64 102.4C148.48 102.4 122.88 112.64 104.96 130.56 84.48 151.04 74.24 176.64 74.24 204.8l5.12 373.76C79.36 593.92 66.56 604.16 53.76 604.16L53.76 604.16zM81.92 952.32c-5.12 0-10.24 0-12.8-5.12-12.8-7.68-15.36-23.04-7.68-35.84l261.12-417.28c5.12-7.68 12.8-12.8 20.48-12.8l325.12 0 243.2-381.44L819.2 99.84c-15.36 0-25.6-10.24-25.6-25.6s10.24-25.6 25.6-25.6l138.24 0c10.24 0 17.92 5.12 23.04 12.8s5.12 17.92 0 25.6L701.44 524.8c-5.12 7.68-12.8 12.8-20.48 12.8L358.4 537.6 102.4 942.08C99.84 949.76 89.6 952.32 81.92 952.32z" /></svg>