<?xml version="1.0" standalone="no"?><!DOCTYPE svg PUBLIC "-//W3C//DTD SVG 1.1//EN" "http://www.w3.org/Graphics/SVG/1.1/DTD/svg11.dtd"><svg class="icon" width="200px" height="200.00px" viewBox="0 0 1024 1024" version="1.1" xmlns="http://www.w3.org/2000/svg"><path d="M514.18482 739.124049c-74.995093 0-149.98507 0.189317-224.980163-0.066517-47.441803-0.158617-64.444511-17.314825-64.516145-64.802678-0.1535-102.26185-0.148384-204.528816 0-306.790666 0.066517-45.374666 19.520112-64.966412 65.452496-65.032929 150.839554-0.235367 301.679109-0.250717 452.518663 0.01535 45.108599 0.081867 65.119912 20.73788 65.171079 65.974397 0.112567 102.26185 0.133034 204.528816-0.010233 306.790666-0.0614 44.857882-18.547944 63.63096-63.53886 63.825393C667.582711 739.359416 590.883766 739.124049 514.18482 739.124049zM255.787658 520.943946c0 55.597781-0.13815 108.345575 0.081867 161.093369 0.071633 16.588258 8.943946 24.513986 25.711288 24.503753 155.940878-0.10745 311.886874-0.2149 467.827752 0.148384 17.197142 0.040933 26.744856-8.094579 27.010923-23.628801 0.910768-53.438545 0.347934-106.897557 0.347934-162.111587C602.667466 520.943946 430.951881 520.943946 255.787658 520.943946zM777.166522 412.915605c0-11.978134 0-21.208614 0-30.439095 0.010233-44.018748-3.510038-47.498086-48.362804-47.50832-111.58443-0.01535-223.16886-0.010233-334.75329-0.005117-35.775786 0-71.551571-0.020467-107.327357 0.071633-14.485305 0.035817-28.771059 2.681137-30.306061 20.082946-1.673152 18.972628-0.378634 38.201089-0.378634 57.797951C431.161665 412.915605 602.150682 412.915605 777.166522 412.915605zM327.58483 664.410373c-9.573297 0-17.841843 0-28.249158 0 0-20.79928 0-41.480877 0-64.874312 8.212262-0.450267 17.053875-0.941468 28.249158-1.555469C327.58483 620.105092 327.58483 640.807155 327.58483 664.410373zM372.836696 599.198361c11.031549 0 19.320562 0 29.221326 0 0 21.761215 0 42.509329 0 64.797562-9.680748 0-18.532594 0-29.221326 0C372.836696 642.633808 372.836696 621.926628 372.836696 599.198361zM474.464078 664.517823c-9.435147 0-17.657643 0-27.59934 0 0-20.901614 0-41.634378 0-65.084095 8.202029-0.424684 16.961775-0.880068 27.59934-1.432669C474.464078 620.105092 474.464078 640.817389 474.464078 664.517823z" /></svg>