<?xml version="1.0" standalone="no"?><!DOCTYPE svg PUBLIC "-//W3C//DTD SVG 1.1//EN" "http://www.w3.org/Graphics/SVG/1.1/DTD/svg11.dtd"><svg class="icon" width="200px" height="200.00px" viewBox="0 0 1024 1024" version="1.1" xmlns="http://www.w3.org/2000/svg"><path d="M797.44 975.36h-563.2a40.96 40.96 0 0 1-40.96-40.96v-307.2a40.96 40.96 0 0 1 40.96-40.96h563.2a40.96 40.96 0 0 1 40.96 40.96v307.2a40.96 40.96 0 0 1-40.96 40.96z m-522.24-81.92h481.28v-225.28h-481.28v225.28zM662.528 305.39776a40.8064 40.8064 0 0 1-28.99456-12.032 40.95488 40.95488 0 0 1 0.06656-57.92256 61.32224 61.32224 0 0 0 15.85664-27.52c8.76544-32.7168-10.7264-66.47296-43.4432-75.24352-32.70656-8.77568-66.4832 10.72128-75.24864 43.4432a61.40928 61.40928 0 0 0-2.06336 18.54464 40.96 40.96 0 0 1-39.18848 42.65472c-22.65088 0.90112-41.7024-16.5888-42.65984-39.18848a143.0784 143.0784 0 0 1 4.7872-43.2128c20.45952-76.35456 99.24096-121.81504 175.57504-101.36576 76.35456 20.45952 121.8304 99.22048 101.376 175.58016a143.34976 143.34976 0 0 1-37.12512 64.3072 40.86784 40.86784 0 0 1-28.93824 11.9552zM843.52 668.16h-665.6c-50.816 0-92.16-41.344-92.16-92.16 0-42.60352 29.056-78.54592 68.39808-89.05728A245.93408 245.93408 0 0 1 136.96 396.8c0-135.51104 110.24896-245.76 245.76-245.76a245.44256 245.44256 0 0 1 194.03776 94.91456A219.2896 219.2896 0 0 1 664.32 227.84c121.3952 0 220.16 98.7648 220.16 220.16a220.6208 220.6208 0 0 1-4.2752 43.45856c32.6144 14.208 55.4752 46.75584 55.4752 84.54144 0 50.816-41.344 92.16-92.16 92.16z m-665.6-102.4c-5.64736 0-10.24 4.59264-10.24 10.24s4.59264 10.24 10.24 10.24h665.6c5.64736 0 10.24-4.59264 10.24-10.24s-4.59264-10.24-10.24-10.24h-17.26976a40.96 40.96 0 0 1-36.99712-58.53696A136.89856 136.89856 0 0 0 802.56 448c0-76.22656-62.01344-138.24-138.24-138.24a137.43616 137.43616 0 0 0-77.94688 24.07424 40.97024 40.97024 0 0 1-59.21792-14.41792A163.7632 163.7632 0 0 0 382.72 232.96c-90.3424 0-163.84 73.4976-163.84 163.84 0 37.62688 12.4416 73.02656 35.97312 102.3744a40.96 40.96 0 0 1-31.95392 66.5856H177.92zM372.48 965.12a40.96 40.96 0 0 1-40.96-40.96v-291.84a40.96 40.96 0 0 1 81.92 0v291.84a40.96 40.96 0 0 1-40.96 40.96zM518.4 970.24a40.96 40.96 0 0 1-40.96-40.96v-286.72a40.96 40.96 0 0 1 81.92 0v286.72a40.96 40.96 0 0 1-40.96 40.96zM664.32 944.64a40.96 40.96 0 0 1-40.96-40.96v-261.12a40.96 40.96 0 0 1 81.92 0v261.12a40.96 40.96 0 0 1-40.96 40.96z" /></svg>