<?xml version="1.0" standalone="no"?><!DOCTYPE svg PUBLIC "-//W3C//DTD SVG 1.1//EN" "http://www.w3.org/Graphics/SVG/1.1/DTD/svg11.dtd"><svg class="icon" width="200px" height="200.00px" viewBox="0 0 1024 1024" version="1.1" xmlns="http://www.w3.org/2000/svg"><path d="M751.901356 1024l-239.901356-101.011097-239.901356 101.011097v-101.011097l164.143033-151.516647-17.676942-159.092478L24.621455 796.725031v-143.940814L390.786683 329.548705V97.223181l75.758323-78.2836c22.727497-25.252774 65.657213-25.252774 88.38471 0l75.758323 78.2836V329.548705l366.165229 320.710235v143.940813l-393.94328-181.819975-15.151665 159.092478 164.143033 151.516647v101.011097zM512 869.958076l189.395808 78.283601v-2.525277l-166.668311-151.516647L562.505549 536.621455l386.367447 179.294698v-40.404439L582.707768 354.80148V119.950678l-63.131936-63.131936c-2.525277-5.050555-5.050555-5.050555-7.575832-5.050555s-5.050555 0-7.575832 2.525278l-63.131936 63.131936V354.80148L75.127004 675.511714v40.404439L461.494451 536.621455l30.30333 255.053021-166.668311 151.516646v2.525278l186.87053-75.758324z" /></svg>