<?xml version="1.0" standalone="no"?><!DOCTYPE svg PUBLIC "-//W3C//DTD SVG 1.1//EN" "http://www.w3.org/Graphics/SVG/1.1/DTD/svg11.dtd"><svg class="icon" width="200px" height="200.00px" viewBox="0 0 1024 1024" version="1.1" xmlns="http://www.w3.org/2000/svg"><path d="M574.459405 966.660219c98.077356-34.959714 158.708324-110.218177 188.109589-231.8458A561.695818 561.695818 0 0 0 781.145913 594.683014v-10.531797c2.340399-59.972731-20.478493-126.966659-97.345981-228.115788l-20.697906-27.134004-12.213958 32.619315C628.581137 420.61582 558.442297 465.156543 453.490019 495.947421c-57.851744 16.967895-107.146403 25.817529-184.89154 36.422463a154.685762 154.685762 0 0 0-15.65142 3.218049c-47.53936 11.555721-48.855834 66.847653-31.449115 155.270862 26.256354 169.313258 87.764972 230.96815 226.726177 274.996911l-2.04785 14.920045H262.089243c-92.73832 0-150.151239-58.363706-150.151238-151.175163V456.160634c0-135.670019 40.298749-251.592919 169.459532-339.577303 64.360979-42.273461 122.944098-64.434117 189.426064-72.406101 208.734357-21.575556 390.554124 126.674109 428.073649 318.586847 6.436098 36.129913 9.654147 64.946079 9.654147 93.396557 0.438825 7.752572 1.097062 19.308294 1.755299 35.105989 2.486674 62.02058 2.559812 127.990584-1.46275 189.572338l-0.219412 4.095699c-2.413537 32.911864-5.265898 62.166855-8.483947 87.764971-6.143548 49.952896-12.213959 77.525725-15.870833 87.764972-21.356143 85.863397-63.995292 121.408211-121.40821 121.408211H576.507254l-2.047849-15.212595zM742.38305 583.20043v11.409447c0 41.103262-5.704723 84.62006-17.260444 129.23392-27.645966 114.533288-83.376723 179.479367-177.35838 207.637295l-16.455932 4.900211L542.864015 1024H762.861544c74.965913 0 132.963932-48.417009 158.196361-150.516926 4.241974-11.409446 10.970621-42.127186 17.552994-95.151857 3.291186-26.402629 6.216685-56.388994 8.70336-90.178508l0.29255-4.388249a1897.186136 1897.186136 0 0 0-0.29255-229.139713c0-29.986365-3.510599-61.289205-10.458659-100.198343C895.240376 141.376936 695.648203-21.353949 466.874177 2.269456c-72.479239 8.630222-136.401393 32.911864-205.808858 78.403374C118.15469 178.018811 73.175142 307.472145 73.175142 456.160634v373.439954c0 116.727412 75.331601 193.229212 188.914101 193.229212h217.803405l11.555721-87.691834-16.529069-4.827073c-137.498455-40.591299-190.742538-89.373996-215.316731-247.350945-11.994546-61.289205-10.970621-103.123842 1.828437-106.268753 4.388249-1.097062 11.190034-2.413537 9.654147-2.413537 81.913973-10.970621 132.45197-20.112806 192.570975-37.738938 99.466968-29.108716 172.019344-70.43139 208.295533-129.160783 56.315857 79.134749 72.186689 130.330983 70.431389 175.822493zM658.274953 627.082916c26.768316 0 48.490147 33.935789 48.490146 14.627495 0-19.381431-21.72183-35.105989-48.490146-35.105988-26.768316 0-48.490147 15.724557-48.490147 35.105988 0 19.308294 21.72183-14.627495 48.490147-14.627495z m-312.077612 0c26.841454 0 48.490147 33.935789 48.490147 14.627495 0-19.381431-21.648693-35.105989-48.490147-35.105988-26.768316 0-48.417009 15.724557-48.417009 35.105988 0 19.308294 21.648693-14.627495 48.417009-14.627495z" /></svg>