<?xml version="1.0" standalone="no"?><!DOCTYPE svg PUBLIC "-//W3C//DTD SVG 1.1//EN" "http://www.w3.org/Graphics/SVG/1.1/DTD/svg11.dtd"><svg class="icon" width="200px" height="200.00px" viewBox="0 0 1024 1024" version="1.1" xmlns="http://www.w3.org/2000/svg"><path d="M192 235.690667a21.333333 21.333333 0 0 1-42.666667 0V187.733333C149.333333 131.072 196.138667 85.333333 253.632 85.333333H834.346667C891.861333 85.333333 938.666667 131.072 938.666667 187.733333v648.533334c0 56.661333-46.805333 102.4-104.298667 102.4H253.653333C196.138667 938.666667 149.333333 892.928 149.333333 836.266667v-45.525334a21.333333 21.333333 0 0 1 42.666667 0V836.266667c0 32.874667 27.477333 59.733333 61.632 59.733333H834.346667c34.133333 0 61.632-26.858667 61.632-59.733333V187.733333C896 154.858667 868.522667 128 834.368 128H253.653333C219.498667 128 192 154.858667 192 187.733333v47.957334zM106.666667 341.333333h128a21.333333 21.333333 0 0 1 0 42.666667H106.666667a21.333333 21.333333 0 0 1 0-42.666667z m0 149.333334h128a21.333333 21.333333 0 0 1 0 42.666666H106.666667a21.333333 21.333333 0 0 1 0-42.666666z m0 149.333333h128a21.333333 21.333333 0 0 1 0 42.666667H106.666667a21.333333 21.333333 0 0 1 0-42.666667z m318.08-324.906667c-5.013333 3.498667-10.666667 8.405333-16.725334 14.485334a253.333333 253.333333 0 0 0-21.312 24.341333c-6.186667 7.253333-12.266667 23.594667-12.565333 34.133333l-0.277333 2.496a38.4 38.4 0 0 0-0.170667 1.557334c-1.642667 17.237333 1.92 40.533333 11.328 67.306666 16.576 47.104 48.810667 96.469333 97.216 147.029334 49.706667 51.946667 99.584 85.333333 148.266667 100.842666 14.570667 4.650667 28.522667 7.466667 41.6 8.554667a18.666667 18.666667 0 1 1-3.072 37.184 226.005333 226.005333 0 0 1-49.877334-10.197333c-54.805333-17.472-109.909333-54.186667-163.882666-110.592-52.010667-54.314667-87.061333-108.16-105.450667-160.426667-11.221333-31.893333-15.466667-60.48-13.269333-83.264 0.106667-1.173333 0.213333-2.261333 0.362666-3.2 0.853333-18.325333 9.813333-42.048 20.693334-54.784a290.090667 290.090667 0 0 1 23.978666-27.349333c7.594667-7.594667 14.826667-13.845333 21.76-18.688 18.197333-12.757333 34.453333-16.256 47.402667-8.597334 10.922667 4.992 20.949333 21.056 42.666667 65.28 1.813333 3.648 3.669333 7.466667 5.589333 11.456a2195.712 2195.712 0 0 1 31.445333 68.608c5.482667 12.394667 3.989333 29.312-3.584 40.554667l-27.221333 40.426667c1.28 5.376 14.4 24.064 38.165333 48.277333 20.138667 20.522667 37.973333 34.496 52.928 41.92 4.053333 2.005333 7.552 3.370667 10.389334 4.096l34.816-25.685333c11.050667-7.466667 27.733333-9.216 40.064-4.266667l5.504 2.197333a2018.048 2018.048 0 0 1 58.176 24.469334c4.544 2.005333 8.874667 3.946667 13.013333 5.845333 39.594667 18.112 54.037333 26.730667 59.093333 37.632 12.352 23.317333-1.621333 48.213333-39.466666 81.6a423.232 423.232 0 0 1-14.165334 11.946667 18.666667 18.666667 0 1 1-23.146666-29.290667l3.477333-2.837333c2.965333-2.453333 6.037333-5.077333 9.130667-7.808 17.066667-15.04 29.781333-31.616 30.890666-35.84a99.157333 99.157333 0 0 0-8.832-5.418667c-7.850667-4.373333-18.773333-9.770667-32.512-16.042667a1761.834667 1761.834667 0 0 0-69.568-29.610666l-5.44-2.176a10.816 10.816 0 0 0-5.354666 0.533333l-43.456 29.312a19.050667 19.050667 0 0 1-10.026667 3.2c-7.552 0.149333-17.557333-2.645333-29.205333-8.448-18.88-9.386667-39.914667-25.728-62.933334-49.194667-37.888-38.592-53.162667-66.261333-47.445333-85.930666 0.64-2.176 1.493333-4.117333 2.794667-6.122667l29.376-43.626667a10.026667 10.026667 0 0 0 0.384-4.693333l-2.56-5.76a2428.522667 2428.522667 0 0 0-28.373334-61.717333 1402.581333 1402.581333 0 0 0-5.44-11.157334 637.44 637.44 0 0 0-19.2-36.693333c-2.773333-4.778667-5.141333-8.533333-6.976-11.050667a56.64 56.64 0 0 0-8.981333 5.162667z" fill="#333333" /></svg>