<?xml version="1.0" standalone="no"?><!DOCTYPE svg PUBLIC "-//W3C//DTD SVG 1.1//EN" "http://www.w3.org/Graphics/SVG/1.1/DTD/svg11.dtd"><svg class="icon" width="200px" height="200.00px" viewBox="0 0 1024 1024" version="1.1" xmlns="http://www.w3.org/2000/svg"><path d="M1004.562432 649.426944c-1.7408-11.563008-5.618688-37.476352-17.123328-56.046592 5.21728-24.267776 6.029312-67.11296-15.742976-138.124288 5.76-28.35968 11.705344-108.589056-81.79712-178.110464-4.862976-4.158464-13.874176-9.82528-26.97728-9.82528-34.233344 0-58.387456 38.139904-73.571328 66.828288-6.23104 11.762688-11.706368 11.762688-14.98624 11.762688-13.929472 0-34.605056-11.492352-61.437952-34.161664-1.85344-1.568768-3.477504-2.929664-5.018624-4.120576-0.297984-0.369664-0.641024-0.78336-1.010688-1.217536-12.376064-14.900224-45.267968-54.473728-92.40576-54.473728-23.653376 0-46.024704 9.92256-66.485248 29.493248-62.850048 60.132352-211.616768 178.459648-287.141888 192.959488-19.904512 3.8144-35.060736 7.186432-54.807552 11.599872-15.440896 3.442688-33.762304 7.527424-59.584512 12.981248C81.441792 512.635904 26.805248 527.563776 17.009664 571.7504c-1.169408 5.118976-1.910784 10.51648-2.182144 15.978496-2.793472 54.23616 34.404352 126.759936 227.301376 164.513792 8.269824 2.060288 60.581888 14.11584 150.094848 14.11584 55.50592 0 114.318336-4.62848 173.546496-13.581312 0.812032-0.086016 81.783808-8.51968 170.227712-8.51968 31.136768 0 59.738112 1.042432 85.016576 3.101696l2.054144 0.162816 2.05312-0.119808c30.413824-1.816576 132.3008-11.07968 166.962176-53.854208C1002.636288 680.546304 1006.942208 665.296896 1004.562432 649.426944zM158.505984 556.116992c26.133504-5.51936 44.655616-9.645056 60.26752-13.1328 19.121152-4.27008 33.792-7.539712 53.083136-11.236352C356.939776 515.412992 497.030144 406.428672 569.008128 341.576704c-0.01024 0.387072-0.028672 0.77312-0.028672 1.163264 0 24.593408 20.004864 44.599296 44.599296 44.599296 24.595456 0 44.599296-20.005888 44.599296-44.599296 0-1.252352-0.063488-2.48832-0.165888-3.714048 1.55136 1.798144 2.8928 3.410944 3.97312 4.7104 3.321856 4.000768 6.516736 7.842816 11.035648 10.752 0.6144 0.505856 1.353728 1.138688 2.224128 1.880064 15.525888 13.111296 56.774656 47.942656 99.121152 47.942656 28.316672 0 51.970048-15.212544 66.599936-42.845184 9.48224-17.91488 16.68096-27.268096 21.11488-32 69.748736 56.368128 52.383744 115.017728 51.700736 117.228544l-3.167232 9.182208 2.965504 9.24672c10.800128 33.637376 15.648768 59.05408 17.472512 77.74208-14.193664 1.931264-38.393856 4.450304-76.541952 6.280192-36.586496 1.718272-68.867072 10.635264-109.71648 21.92896-50.342912 13.90592-118.657024 32.77824-234.529792 49.69472-17.779712-12.434432-53.481472-30.127104-97.824768-14.178304-10.093568 3.628032-19.617792 7.676928-29.285376 11.805696-33.476608 14.307328-65.143808 27.759616-134.181888 24.885248-22.499328-0.362496-88.799232-5.537792-125.028352-24.98048-8.225792-4.320256-32.694272-18.791424-47.066112-33.732608-0.54784-0.56832-1.052672-1.108992-1.528832-1.63328C80.436224 577.811456 98.568192 568.713216 158.505984 556.116992zM823.627776 688.979968c-26.304512-2.075648-55.778304-3.122176-87.627776-3.122176-91.652096 0-172.949504 8.482816-177.642496 9.010176-57.645056 8.682496-113.537024 13.088768-166.132736 13.088768-44.940288 0-79.593472-3.265536-102.703104-6.4512 54.669312-2.983936 87.22432-16.869376 116.575232-29.408256 8.626176-3.678208 17.108992-7.320576 26.105856-10.559488 20.675584-7.435264 37.769216 2.061312 44.983296 7.243776l0.699392 1.717248 4.491264 2.9952 7.94112 9.090048 15.640576-2.203648c127.239168-17.8944 200.72448-38.1952 254.37696-53.016576 40.265728-11.12064 66.854912-18.471936 96.941056-19.892224 22.5792-1.079296 40.758272-2.408448 55.26528-3.76832l-40.737792 44.177408 69.951488-14.050304c1.496064 5.039104 3.236864 12.4672 4.8896 23.166976C937.678848 670.09536 879.248384 685.32224 823.627776 688.979968z" /></svg>