<?xml version="1.0" standalone="no"?><!DOCTYPE svg PUBLIC "-//W3C//DTD SVG 1.1//EN" "http://www.w3.org/Graphics/SVG/1.1/DTD/svg11.dtd"><svg t="1678964275231" class="icon" viewBox="0 0 1024 1024" version="1.1" xmlns="http://www.w3.org/2000/svg" p-id="2897" xmlns:xlink="http://www.w3.org/1999/xlink" width="200" height="200"><path d="M506.83068651 972.52299106c-253.57580322 0-459.88264913-206.30684576-459.8826491-459.88264905s206.30684576-459.88264913 459.8826491-459.8826489 459.88264913 206.30684576 459.88264927 459.8826489-206.29520623 459.88264913-459.88264927 459.88264905z m0-861.55230987c-221.4771603 0-401.66966071 180.19250042-401.66966084 401.66966082s180.19250042 401.66966071 401.66966084 401.66966077 401.66966071-180.19250042 401.66966099-401.66966077-180.18086076-401.66966071-401.66966099-401.66966082z" fill="#2c2c2c" p-id="2898"></path><path d="M765.2614472 547.56814069H260.05416494a29.10649413 29.10649413 0 1 1 0-58.21299783h505.20728226a29.10649413 29.10649413 0 1 1 0 58.21299783z" fill="#2c2c2c" p-id="2899"></path><path d="M512.65198161 809.52661635a29.10649413 29.10649413 0 0 1-29.10649422-29.10650362v-523.91694194a29.10649413 29.10649413 0 1 1 58.21299789 0v523.91694194a29.10649413 29.10649413 0 0 1-29.10650367 29.10650362z" fill="#2c2c2c" p-id="2900"></path></svg>