<?xml version="1.0" encoding="utf-8"?>
<svg width="20px" height="20px" viewBox="0 0 20 20" version="1.1" xmlns:xlink="http://www.w3.org/1999/xlink" xmlns="http://www.w3.org/2000/svg">
  <g id="Check">
    <g id="Group">
      <path d="M9.999 0L10.001 0Q10.2465 0 10.4916 0.0120442Q10.7368 0.0240885 10.9811 0.0481479Q11.2254 0.0722074 11.4682 0.108224Q11.711 0.144241 11.9517 0.192128Q12.1925 0.240015 12.4306 0.299657Q12.6687 0.3593 12.9036 0.430553Q13.1384 0.501807 13.3696 0.584501Q13.6007 0.667194 13.8274 0.761128Q14.0542 0.855062 14.2761 0.960011Q14.498 1.06496 14.7145 1.18067Q14.931 1.29638 15.1415 1.42257Q15.352 1.54876 15.5561 1.68514Q15.7602 1.82151 15.9574 1.96773Q16.1546 2.11395 16.3443 2.26967Q16.534 2.42539 16.7159 2.59023Q16.8978 2.75507 17.0714 2.92864Q17.2449 3.10221 17.4098 3.28408Q17.5746 3.46596 17.7303 3.6557Q17.886 3.84545 18.0323 4.0426Q18.1785 4.23976 18.3149 4.44385Q18.4512 4.64795 18.5774 4.85849Q18.7036 5.06903 18.8193 5.2855Q18.935 5.50198 19.04 5.72388Q19.1449 5.94577 19.2389 6.17255Q19.3328 6.39932 19.4155 6.63044Q19.4982 6.86155 19.5694 7.09644Q19.6407 7.33134 19.7003 7.56944Q19.76 7.80755 19.8079 8.04829Q19.8558 8.28904 19.8918 8.53184Q19.9278 8.77465 19.9519 9.01893Q19.9759 9.26321 19.988 9.50837Q20 9.75354 20 9.999L20 10.001Q20 10.2465 19.988 10.4916Q19.9759 10.7368 19.9519 10.9811Q19.9278 11.2254 19.8918 11.4682Q19.8558 11.711 19.8079 11.9517Q19.76 12.1925 19.7003 12.4306Q19.6407 12.6687 19.5694 12.9036Q19.4982 13.1384 19.4155 13.3696Q19.3328 13.6007 19.2389 13.8274Q19.1449 14.0542 19.04 14.2761Q18.935 14.498 18.8193 14.7145Q18.7036 14.931 18.5774 15.1415Q18.4512 15.352 18.3149 15.5561Q18.1785 15.7602 18.0323 15.9574Q17.886 16.1546 17.7303 16.3443Q17.5746 16.534 17.4098 16.7159Q17.2449 16.8978 17.0714 17.0714Q16.8978 17.2449 16.7159 17.4098Q16.534 17.5746 16.3443 17.7303Q16.1546 17.886 15.9574 18.0323Q15.7602 18.1785 15.5561 18.3149Q15.3521 18.4512 15.1415 18.5774Q14.931 18.7036 14.7145 18.8193Q14.498 18.935 14.2761 19.04Q14.0542 19.1449 13.8274 19.2389Q13.6007 19.3328 13.3696 19.4155Q13.1384 19.4982 12.9036 19.5694Q12.6687 19.6407 12.4306 19.7003Q12.1925 19.76 11.9517 19.8079Q11.711 19.8558 11.4682 19.8918Q11.2254 19.9278 10.9811 19.9519Q10.7368 19.9759 10.4916 19.988Q10.2465 20 10.001 20L9.999 20Q9.75354 20 9.50837 19.988Q9.26321 19.9759 9.01893 19.9519Q8.77465 19.9278 8.53184 19.8918Q8.28904 19.8558 8.04829 19.8079Q7.80755 19.76 7.56944 19.7003Q7.33134 19.6407 7.09644 19.5694Q6.86155 19.4982 6.63044 19.4155Q6.39932 19.3328 6.17255 19.2389Q5.94577 19.1449 5.72388 19.04Q5.50198 18.935 5.2855 18.8193Q5.06903 18.7036 4.85849 18.5774Q4.64795 18.4512 4.44385 18.3149Q4.23976 18.1785 4.0426 18.0323Q3.84545 17.886 3.6557 17.7303Q3.46596 17.5746 3.28408 17.4098Q3.10221 17.2449 2.92864 17.0714Q2.75507 16.8978 2.59023 16.7159Q2.42539 16.534 2.26967 16.3443Q2.11395 16.1546 1.96773 15.9574Q1.82151 15.7602 1.68514 15.5561Q1.54876 15.3521 1.42257 15.1415Q1.29638 14.931 1.18067 14.7145Q1.06496 14.498 0.960011 14.2761Q0.855062 14.0542 0.761128 13.8274Q0.667194 13.6007 0.584501 13.3696Q0.501807 13.1384 0.430553 12.9036Q0.3593 12.6687 0.299657 12.4306Q0.240015 12.1925 0.192128 11.9517Q0.144241 11.711 0.108224 11.4682Q0.0722074 11.2254 0.0481479 10.9811Q0.0240885 10.7368 0.0120442 10.4916Q0 10.2465 0 10.001L0 9.999Q0 9.75354 0.0120442 9.50837Q0.0240885 9.26321 0.0481479 9.01893Q0.0722074 8.77465 0.108224 8.53184Q0.144241 8.28904 0.192128 8.04829Q0.240015 7.80755 0.299657 7.56944Q0.3593 7.33134 0.430553 7.09644Q0.501807 6.86155 0.584501 6.63044Q0.667194 6.39932 0.761128 6.17255Q0.855062 5.94577 0.960011 5.72388Q1.06496 5.50198 1.18067 5.2855Q1.29638 5.06903 1.42257 4.85849Q1.54876 4.64795 1.68514 4.44385Q1.82151 4.23976 1.96773 4.0426Q2.11395 3.84545 2.26967 3.6557Q2.42539 3.46596 2.59023 3.28408Q2.75507 3.10221 2.92864 2.92864Q3.10221 2.75507 3.28408 2.59023Q3.46596 2.42539 3.6557 2.26967Q3.84545 2.11395 4.0426 1.96773Q4.23976 1.82151 4.44385 1.68514Q4.64795 1.54876 4.85849 1.42257Q5.06903 1.29638 5.2855 1.18067Q5.50198 1.06496 5.72388 0.960011Q5.94577 0.855062 6.17255 0.761128Q6.39932 0.667194 6.63044 0.584501Q6.86155 0.501807 7.09644 0.430553Q7.33134 0.3593 7.56944 0.299657Q7.80755 0.240015 8.04829 0.192128Q8.28904 0.144241 8.53184 0.108224Q8.77465 0.0722074 9.01893 0.0481479Q9.26321 0.0240885 9.50837 0.0120442Q9.75354 0 9.999 0Z" id="Rectangle" fill="#8EE04E" stroke="none" />
      <path d="M7.70711 9.29289C7.31658 8.90237 6.68342 8.90237 6.29289 9.29289C5.90237 9.68342 5.90237 10.3166 6.29289 10.7071L8.29289 12.7071C8.68342 13.0976 9.31658 13.0976 9.70711 12.7071L13.7071 8.70711C14.0976 8.31658 14.0976 7.68342 13.7071 7.29289C13.3166 6.90237 12.6834 6.90237 12.2929 7.29289L9 10.5858L7.70711 9.29289Z" id="Check" fill="#1B7A00" stroke="none" />
    </g>
  </g>
</svg>