<?xml version="1.0" encoding="utf-8"?>
<svg width="44px" height="44px" viewBox="0 0 44 44" version="1.1" xmlns:xlink="http://www.w3.org/1999/xlink" xmlns="http://www.w3.org/2000/svg">
  <defs>
    <path d="M21.999 0L22.001 0Q22.541 0 23.0804 0.0264988Q23.6198 0.0529975 24.1573 0.105931Q24.6947 0.158865 25.2289 0.238106Q25.7631 0.317347 26.2928 0.422705Q26.8225 0.528062 27.3463 0.659282Q27.8702 0.790503 28.387 0.947269Q28.9038 1.10404 29.4122 1.28597Q29.9207 1.46791 30.4196 1.67457Q30.9186 1.88124 31.4068 2.11214Q31.895 2.34304 32.3713 2.59761Q32.8475 2.85219 33.3107 3.12983Q33.774 3.40747 34.223 3.7075Q34.672 4.00753 35.1058 4.32924Q35.5396 4.65094 35.957 4.99354Q36.3745 5.33614 36.7746 5.69882Q37.1748 6.06149 37.5566 6.44336Q37.9385 6.82523 38.3012 7.22537Q38.6639 7.62552 39.0065 8.04298Q39.3491 8.46044 39.6708 8.89421Q39.9925 9.32798 40.2925 9.77701Q40.5925 10.226 40.8702 10.6893Q41.1478 11.1525 41.4024 11.6287Q41.657 12.105 41.8879 12.5932Q42.1188 13.0814 42.3254 13.5803Q42.5321 14.0793 42.714 14.5878Q42.896 15.0962 43.0527 15.613Q43.2095 16.1298 43.3407 16.6537Q43.4719 17.1775 43.5773 17.7072Q43.6826 18.2369 43.7619 18.7711Q43.8411 19.3053 43.8941 19.8427Q43.947 20.3802 43.9735 20.9196Q44 21.459 44 21.999L44 22.001Q44 22.541 43.9735 23.0804Q43.947 23.6198 43.8941 24.1573Q43.8411 24.6947 43.7619 25.2289Q43.6826 25.7631 43.5773 26.2928Q43.4719 26.8225 43.3407 27.3463Q43.2095 27.8702 43.0527 28.387Q42.896 28.9038 42.714 29.4122Q42.5321 29.9207 42.3254 30.4196Q42.1188 30.9186 41.8879 31.4068Q41.657 31.895 41.4024 32.3713Q41.1478 32.8475 40.8702 33.3107Q40.5925 33.774 40.2925 34.223Q39.9925 34.672 39.6708 35.1058Q39.3491 35.5396 39.0065 35.957Q38.6639 36.3745 38.3012 36.7746Q37.9385 37.1748 37.5566 37.5566Q37.1748 37.9385 36.7746 38.3012Q36.3745 38.6639 35.957 39.0065Q35.5396 39.3491 35.1058 39.6708Q34.672 39.9925 34.223 40.2925Q33.774 40.5925 33.3107 40.8702Q32.8475 41.1478 32.3713 41.4024Q31.895 41.657 31.4068 41.8879Q30.9186 42.1188 30.4196 42.3254Q29.9207 42.5321 29.4122 42.714Q28.9038 42.896 28.387 43.0527Q27.8702 43.2095 27.3463 43.3407Q26.8225 43.4719 26.2928 43.5773Q25.7631 43.6826 25.2289 43.7619Q24.6947 43.8411 24.1573 43.8941Q23.6198 43.947 23.0804 43.9735Q22.541 44 22.001 44L21.999 44Q21.459 44 20.9196 43.9735Q20.3802 43.947 19.8427 43.8941Q19.3053 43.8411 18.7711 43.7619Q18.2369 43.6826 17.7072 43.5773Q17.1775 43.4719 16.6537 43.3407Q16.1298 43.2095 15.613 43.0527Q15.0962 42.896 14.5878 42.714Q14.0793 42.5321 13.5803 42.3254Q13.0814 42.1188 12.5932 41.8879Q12.105 41.657 11.6287 41.4024Q11.1525 41.1478 10.6893 40.8702Q10.226 40.5925 9.77701 40.2925Q9.32798 39.9925 8.89421 39.6708Q8.46044 39.3491 8.04298 39.0065Q7.62552 38.6639 7.22537 38.3012Q6.82523 37.9385 6.44336 37.5566Q6.06149 37.1748 5.69882 36.7746Q5.33614 36.3745 4.99354 35.957Q4.65094 35.5396 4.32924 35.1058Q4.00753 34.672 3.7075 34.223Q3.40747 33.774 3.12983 33.3107Q2.85219 32.8475 2.59761 32.3713Q2.34304 31.895 2.11214 31.4068Q1.88124 30.9186 1.67457 30.4196Q1.46791 29.9207 1.28597 29.4122Q1.10404 28.9038 0.947269 28.387Q0.790503 27.8702 0.659282 27.3463Q0.528062 26.8225 0.422705 26.2928Q0.317347 25.7631 0.238106 25.2289Q0.158865 24.6947 0.105931 24.1573Q0.0529975 23.6198 0.0264988 23.0804Q0 22.541 0 22.001L0 21.999Q0 21.459 0.0264988 20.9196Q0.0529975 20.3802 0.105931 19.8427Q0.158865 19.3053 0.238106 18.7711Q0.317347 18.2369 0.422705 17.7072Q0.528062 17.1775 0.659282 16.6537Q0.790503 16.1298 0.947269 15.613Q1.10404 15.0962 1.28597 14.5878Q1.46791 14.0793 1.67457 13.5803Q1.88124 13.0814 2.11214 12.5932Q2.34304 12.105 2.59761 11.6287Q2.85219 11.1525 3.12983 10.6893Q3.40747 10.226 3.7075 9.77701Q4.00753 9.32798 4.32924 8.89421Q4.65094 8.46044 4.99354 8.04298Q5.33614 7.62552 5.69882 7.22537Q6.06149 6.82523 6.44336 6.44336Q6.82523 6.06149 7.22537 5.69882Q7.62552 5.33614 8.04298 4.99354Q8.46044 4.65094 8.89421 4.32924Q9.32798 4.00753 9.77701 3.7075Q10.226 3.40747 10.6893 3.12983Q11.1525 2.85219 11.6287 2.59761Q12.105 2.34304 12.5932 2.11214Q13.0814 1.88124 13.5803 1.67457Q14.0793 1.46791 14.5878 1.28597Q15.0962 1.10404 15.613 0.947269Q16.1298 0.790503 16.6537 0.659282Q17.1775 0.528062 17.7072 0.422705Q18.2369 0.317347 18.7711 0.238106Q19.3053 0.158865 19.8427 0.105931Q20.3802 0.0529975 20.9196 0.0264988Q21.459 0 21.999 0Z" id="path_1" />
    <clipPath id="mask_1">
      <use xlink:href="#path_1" />
    </clipPath>
  </defs>
  <g id="Icon">
    <g id="ButtonsFloatRest" transform="matrix(1 0 0 1 -5.684342E-14 0)">
      <path d="M21.999 0L22.001 0Q22.541 0 23.0804 0.0264988Q23.6198 0.0529975 24.1573 0.105931Q24.6947 0.158865 25.2289 0.238106Q25.7631 0.317347 26.2928 0.422705Q26.8225 0.528062 27.3463 0.659282Q27.8702 0.790503 28.387 0.947269Q28.9038 1.10404 29.4122 1.28597Q29.9207 1.46791 30.4196 1.67457Q30.9186 1.88124 31.4068 2.11214Q31.895 2.34304 32.3713 2.59761Q32.8475 2.85219 33.3107 3.12983Q33.774 3.40747 34.223 3.7075Q34.672 4.00753 35.1058 4.32924Q35.5396 4.65094 35.957 4.99354Q36.3745 5.33614 36.7746 5.69882Q37.1748 6.06149 37.5566 6.44336Q37.9385 6.82523 38.3012 7.22537Q38.6639 7.62552 39.0065 8.04298Q39.3491 8.46044 39.6708 8.89421Q39.9925 9.32798 40.2925 9.77701Q40.5925 10.226 40.8702 10.6893Q41.1478 11.1525 41.4024 11.6287Q41.657 12.105 41.8879 12.5932Q42.1188 13.0814 42.3254 13.5803Q42.5321 14.0793 42.714 14.5878Q42.896 15.0962 43.0527 15.613Q43.2095 16.1298 43.3407 16.6537Q43.4719 17.1775 43.5773 17.7072Q43.6826 18.2369 43.7619 18.7711Q43.8411 19.3053 43.8941 19.8427Q43.947 20.3802 43.9735 20.9196Q44 21.459 44 21.999L44 22.001Q44 22.541 43.9735 23.0804Q43.947 23.6198 43.8941 24.1573Q43.8411 24.6947 43.7619 25.2289Q43.6826 25.7631 43.5773 26.2928Q43.4719 26.8225 43.3407 27.3463Q43.2095 27.8702 43.0527 28.387Q42.896 28.9038 42.714 29.4122Q42.5321 29.9207 42.3254 30.4196Q42.1188 30.9186 41.8879 31.4068Q41.657 31.895 41.4024 32.3713Q41.1478 32.8475 40.8702 33.3107Q40.5925 33.774 40.2925 34.223Q39.9925 34.672 39.6708 35.1058Q39.3491 35.5396 39.0065 35.957Q38.6639 36.3745 38.3012 36.7746Q37.9385 37.1748 37.5566 37.5566Q37.1748 37.9385 36.7746 38.3012Q36.3745 38.6639 35.957 39.0065Q35.5396 39.3491 35.1058 39.6708Q34.672 39.9925 34.223 40.2925Q33.774 40.5925 33.3107 40.8702Q32.8475 41.1478 32.3713 41.4024Q31.895 41.657 31.4068 41.8879Q30.9186 42.1188 30.4196 42.3254Q29.9207 42.5321 29.4122 42.714Q28.9038 42.896 28.387 43.0527Q27.8702 43.2095 27.3463 43.3407Q26.8225 43.4719 26.2928 43.5773Q25.7631 43.6826 25.2289 43.7619Q24.6947 43.8411 24.1573 43.8941Q23.6198 43.947 23.0804 43.9735Q22.541 44 22.001 44L21.999 44Q21.459 44 20.9196 43.9735Q20.3802 43.947 19.8427 43.8941Q19.3053 43.8411 18.7711 43.7619Q18.2369 43.6826 17.7072 43.5773Q17.1775 43.4719 16.6537 43.3407Q16.1298 43.2095 15.613 43.0527Q15.0962 42.896 14.5878 42.714Q14.0793 42.5321 13.5803 42.3254Q13.0814 42.1188 12.5932 41.8879Q12.105 41.657 11.6287 41.4024Q11.1525 41.1478 10.6893 40.8702Q10.226 40.5925 9.77701 40.2925Q9.32798 39.9925 8.89421 39.6708Q8.46044 39.3491 8.04298 39.0065Q7.62552 38.6639 7.22537 38.3012Q6.82523 37.9385 6.44336 37.5566Q6.06149 37.1748 5.69882 36.7746Q5.33614 36.3745 4.99354 35.957Q4.65094 35.5396 4.32924 35.1058Q4.00753 34.672 3.7075 34.223Q3.40747 33.774 3.12983 33.3107Q2.85219 32.8475 2.59761 32.3713Q2.34304 31.895 2.11214 31.4068Q1.88124 30.9186 1.67457 30.4196Q1.46791 29.9207 1.28597 29.4122Q1.10404 28.9038 0.947269 28.387Q0.790503 27.8702 0.659282 27.3463Q0.528062 26.8225 0.422705 26.2928Q0.317347 25.7631 0.238106 25.2289Q0.158865 24.6947 0.105931 24.1573Q0.0529975 23.6198 0.0264988 23.0804Q0 22.541 0 22.001L0 21.999Q0 21.459 0.0264988 20.9196Q0.0529975 20.3802 0.105931 19.8427Q0.158865 19.3053 0.238106 18.7711Q0.317347 18.2369 0.422705 17.7072Q0.528062 17.1775 0.659282 16.6537Q0.790503 16.1298 0.947269 15.613Q1.10404 15.0962 1.28597 14.5878Q1.46791 14.0793 1.67457 13.5803Q1.88124 13.0814 2.11214 12.5932Q2.34304 12.105 2.59761 11.6287Q2.85219 11.1525 3.12983 10.6893Q3.40747 10.226 3.7075 9.77701Q4.00753 9.32798 4.32924 8.89421Q4.65094 8.46044 4.99354 8.04298Q5.33614 7.62552 5.69882 7.22537Q6.06149 6.82523 6.44336 6.44336Q6.82523 6.06149 7.22537 5.69882Q7.62552 5.33614 8.04298 4.99354Q8.46044 4.65094 8.89421 4.32924Q9.32798 4.00753 9.77701 3.7075Q10.226 3.40747 10.6893 3.12983Q11.1525 2.85219 11.6287 2.59761Q12.105 2.34304 12.5932 2.11214Q13.0814 1.88124 13.5803 1.67457Q14.0793 1.46791 14.5878 1.28597Q15.0962 1.10404 15.613 0.947269Q16.1298 0.790503 16.6537 0.659282Q17.1775 0.528062 17.7072 0.422705Q18.2369 0.317347 18.7711 0.238106Q19.3053 0.158865 19.8427 0.105931Q20.3802 0.0529975 20.9196 0.0264988Q21.459 0 21.999 0Z" id="Base" fill="#FF6740" fill-rule="evenodd" stroke="none" />
      <g clip-path="url(#mask_1)">
        <g id="👑-Icon" transform="translate(10 10)">
          <g id="Chart-up">
            <path d="M24 0L24 24L0 24L0 0L24 0Z" id="Vector" fill="none" fill-rule="evenodd" stroke="none" />
            <path d="M9.23178 10.3598C9.58134 9.94034 10.1953 9.88367 10.6141 10.2106L10.7071 10.2929L12.943 12.528L16.825 8L15 8C14.4872 8 14.0645 7.61396 14.0067 7.11662L14 7C14 6.48716 14.386 6.06449 14.8834 6.00673L15 6L19 6L19.0344 6.00055C19.0601 6.00142 19.0858 6.00328 19.1115 6.00614L19 6C19.0538 6 19.1065 6.00424 19.158 6.01241C19.1778 6.01555 19.1977 6.01935 19.2176 6.02376L19.2293 6.02641L19.277 6.03886C19.297 6.04463 19.3169 6.05103 19.3367 6.05808C19.4489 6.09815 19.5522 6.15796 19.642 6.23327C19.645 6.23579 19.6479 6.23826 19.6508 6.24074L19.6653 6.2534C19.6893 6.27478 19.7122 6.29728 19.734 6.32084L19.6508 6.24074C19.6867 6.27156 19.72 6.30437 19.7504 6.33888C19.7705 6.36182 19.7899 6.38588 19.8081 6.41081C19.814 6.41871 19.8197 6.42675 19.8253 6.43485C19.8409 6.45794 19.8557 6.48155 19.8695 6.50579C19.8763 6.51755 19.8829 6.52964 19.8892 6.54183C19.8992 6.56145 19.9087 6.58141 19.9175 6.60173C19.9243 6.61731 19.9305 6.63281 19.9364 6.64844C19.9459 6.67346 19.9543 6.69907 19.9617 6.72511C19.9643 6.73468 19.9668 6.74409 19.9692 6.75353C19.9801 6.7957 19.9881 6.8391 19.9933 6.88338L20 7L20 11C20 11.5523 19.5523 12 19 12C18.4872 12 18.0645 11.614 18.0067 11.1166L18 11L18 9.702L13.7593 14.6508C13.4072 15.0615 12.7998 15.1132 12.385 14.7887L12.2929 14.7071L10.067 12.482L5.76822 17.6402C5.44185 18.0318 4.87946 18.1108 4.46117 17.8425L4.35982 17.7682C3.96818 17.4419 3.8892 16.8795 4.15746 16.4612L4.23178 16.3598L9.23178 10.3598Z" id="👑-Edit-Color" fill="#FFE1D9" fill-rule="evenodd" stroke="none" />
          </g>
        </g>
      </g>
    </g>
  </g>
</svg>