<?xml version="1.0" encoding="utf-8"?>
<svg width="327px" height="64px" viewBox="0 0 327 64" version="1.1" xmlns:xlink="http://www.w3.org/1999/xlink" xmlns="http://www.w3.org/2000/svg">
  <g id="Facebook">
    <g id="ButtonsLargeIcon+LabelRest">
      <path d="M23.999 0L303.001 0Q303.59 0 304.179 0.0289078Q304.767 0.0578157 305.353 0.115562Q305.94 0.173308 306.522 0.259753Q307.105 0.346198 307.683 0.461134Q308.261 0.57607 308.832 0.71922Q309.404 0.86237 309.968 1.03339Q310.531 1.20441 311.086 1.40288Q311.641 1.60136 312.185 1.82681Q312.729 2.05227 313.262 2.30416Q313.794 2.55605 314.314 2.83377Q314.834 3.11149 315.339 3.41437Q315.844 3.71725 316.334 4.04456Q316.824 4.37187 317.297 4.72282Q317.77 5.07377 318.226 5.44752Q318.681 5.82127 319.118 6.21691Q319.554 6.61256 319.971 7.02914Q320.387 7.44573 320.783 7.88226Q321.179 8.31878 321.552 8.77419Q321.926 9.22961 322.277 9.70281Q322.628 10.176 322.955 10.6659Q323.283 11.1557 323.586 11.661Q323.888 12.1664 324.166 12.6859Q324.444 13.2055 324.696 13.7381Q324.948 14.2707 325.173 14.815Q325.399 15.3593 325.597 15.914Q325.796 16.4687 325.967 17.0325Q326.138 17.5962 326.281 18.1677Q326.424 18.7392 326.539 19.317Q326.654 19.8948 326.74 20.4776Q326.827 21.0604 326.884 21.6467Q326.942 22.233 326.971 22.8214Q327 23.4099 327 23.999L327 40.001Q327 40.5901 326.971 41.1786Q326.942 41.767 326.884 42.3533Q326.827 42.9396 326.74 43.5224Q326.654 44.1051 326.539 44.683Q326.424 45.2608 326.281 45.8323Q326.138 46.4038 325.967 46.9675Q325.796 47.5313 325.597 48.086Q325.399 48.6407 325.173 49.185Q324.948 49.7293 324.696 50.2619Q324.444 50.7945 324.166 51.314Q323.888 51.8336 323.586 52.3389Q323.283 52.8443 322.955 53.3341Q322.628 53.824 322.277 54.2972Q321.926 54.7704 321.552 55.2258Q321.179 55.6812 320.783 56.1177Q320.387 56.5543 319.971 56.9709Q319.554 57.3874 319.118 57.7831Q318.681 58.1787 318.226 58.5525Q317.77 58.9262 317.297 59.2772Q316.824 59.6281 316.334 59.9554Q315.844 60.2827 315.339 60.5856Q314.834 60.8885 314.314 61.1662Q313.794 61.4439 313.262 61.6958Q312.729 61.9477 312.185 62.1732Q311.641 62.3986 311.086 62.5971Q310.531 62.7956 309.968 62.9666Q309.404 63.1376 308.832 63.2808Q308.261 63.4239 307.683 63.5389Q307.105 63.6538 306.522 63.7402Q305.94 63.8267 305.353 63.8844Q304.767 63.9422 304.179 63.9711Q303.59 64 303.001 64L23.999 64Q23.4099 64 22.8214 63.9711Q22.233 63.9422 21.6467 63.8844Q21.0604 63.8267 20.4776 63.7402Q19.8948 63.6538 19.317 63.5389Q18.7392 63.4239 18.1677 63.2808Q17.5962 63.1376 17.0325 62.9666Q16.4687 62.7956 15.914 62.5971Q15.3593 62.3986 14.815 62.1732Q14.2707 61.9477 13.7381 61.6958Q13.2055 61.4439 12.6859 61.1662Q12.1664 60.8885 11.661 60.5856Q11.1557 60.2827 10.6659 59.9554Q10.176 59.6281 9.70281 59.2772Q9.22961 58.9262 8.77419 58.5525Q8.31878 58.1787 7.88226 57.7831Q7.44573 57.3874 7.02914 56.9709Q6.61256 56.5543 6.21691 56.1177Q5.82127 55.6812 5.44752 55.2258Q5.07377 54.7704 4.72282 54.2972Q4.37187 53.824 4.04456 53.3341Q3.71725 52.8443 3.41437 52.3389Q3.11149 51.8336 2.83377 51.314Q2.55605 50.7945 2.30416 50.2619Q2.05227 49.7293 1.82681 49.185Q1.60136 48.6407 1.40288 48.086Q1.20441 47.5313 1.03339 46.9675Q0.86237 46.4038 0.71922 45.8323Q0.57607 45.2608 0.461134 44.683Q0.346198 44.1051 0.259753 43.5224Q0.173308 42.9396 0.115562 42.3533Q0.0578157 41.767 0.0289078 41.1786Q0 40.5901 0 40.001L0 23.999Q0 23.4099 0.0289078 22.8214Q0.0578157 22.233 0.115562 21.6467Q0.173308 21.0604 0.259753 20.4776Q0.346198 19.8948 0.461134 19.317Q0.57607 18.7392 0.71922 18.1677Q0.86237 17.5962 1.03339 17.0325Q1.20441 16.4687 1.40288 15.914Q1.60136 15.3593 1.82681 14.815Q2.05227 14.2707 2.30416 13.7381Q2.55605 13.2055 2.83377 12.6859Q3.11149 12.1664 3.41437 11.661Q3.71725 11.1557 4.04456 10.6659Q4.37187 10.176 4.72282 9.70281Q5.07377 9.22961 5.44752 8.77419Q5.82127 8.31878 6.21691 7.88226Q6.61256 7.44573 7.02914 7.02914Q7.44573 6.61256 7.88226 6.21691Q8.31878 5.82127 8.77419 5.44752Q9.22961 5.07377 9.70281 4.72282Q10.176 4.37187 10.6659 4.04456Q11.1557 3.71725 11.661 3.41437Q12.1664 3.11149 12.6859 2.83377Q13.2055 2.55605 13.7381 2.30416Q14.2707 2.05227 14.815 1.82681Q15.3593 1.60136 15.914 1.40288Q16.4687 1.20441 17.0325 1.03339Q17.5962 0.86237 18.1677 0.71922Q18.7392 0.57607 19.317 0.461134Q19.8948 0.346198 20.4776 0.259753Q21.0604 0.173308 21.6467 0.115562Q22.233 0.0578157 22.8214 0.0289078Q23.4099 0 23.999 0Z" id="Base" fill="none" fill-rule="evenodd" stroke="#F4F4F6" stroke-width="1.5" stroke-linecap="round" stroke-linejoin="round" />
      <g id="Content" transform="translate(121 19)">
        <g id="Sign-In-with-Facebook" fill="#121826" transform="translate(32 0)">
          <path d="M3.108 18.56Q4.12 19 5.384 19Q6.272 19 7.084 18.776Q7.896 18.552 8.528 18.104Q9.16 17.656 9.532 16.98Q9.904 16.304 9.904 15.408Q9.904 14.544 9.588 13.984Q9.272 13.424 8.784 13.08Q8.296 12.736 7.768 12.544Q7.24 12.352 6.816 12.24L4.752 11.664Q4.36 11.56 3.98 11.404Q3.6 11.248 3.344 10.98Q3.088 10.712 3.088 10.288Q3.088 9.84 3.388 9.504Q3.688 9.168 4.18 8.988Q4.672 8.808 5.248 8.816Q5.84 8.832 6.364 9.056Q6.888 9.28 7.252 9.708Q7.616 10.136 7.744 10.744L9.816 10.384Q9.56 9.32 8.936 8.568Q8.312 7.816 7.384 7.42Q6.456 7.024 5.272 7.016Q4.104 7.008 3.148 7.384Q2.192 7.76 1.628 8.516Q1.064 9.272 1.064 10.384Q1.064 11.144 1.316 11.66Q1.568 12.176 1.964 12.508Q2.36 12.84 2.804 13.028Q3.248 13.216 3.632 13.328L6.608 14.208Q6.928 14.304 7.172 14.436Q7.416 14.568 7.572 14.728Q7.728 14.888 7.808 15.092Q7.888 15.296 7.888 15.536Q7.888 16.072 7.548 16.44Q7.208 16.808 6.664 17Q6.12 17.192 5.504 17.192Q4.464 17.192 3.668 16.632Q2.872 16.072 2.616 15.048L0.616 15.352Q0.792 16.48 1.444 17.3Q2.096 18.12 3.108 18.56ZM11.8 7.04L11.8 8.808L13.728 8.808L13.728 7.04L11.8 7.04ZM69.888 7.04L69.888 8.808L71.816 8.808L71.816 7.04L69.888 7.04ZM39.352 18.76L39.352 7.24L41.28 7.24L41.28 18.76L39.352 18.76ZM81.128 7.24L81.128 18.76L83.08 18.76L83.08 14.32Q83.08 13.528 83.256 13.02Q83.432 12.512 83.724 12.22Q84.016 11.928 84.376 11.808Q84.736 11.688 85.104 11.688Q85.792 11.688 86.196 11.984Q86.6 12.28 86.804 12.74Q87.008 13.2 87.064 13.696Q87.12 14.192 87.12 14.6L87.12 18.76L89.072 18.76L89.072 13.936Q89.072 13.624 89.02 13.124Q88.968 12.624 88.792 12.064Q88.616 11.504 88.248 11.008Q87.88 10.512 87.256 10.192Q86.632 9.872 85.672 9.872Q84.456 9.872 83.624 10.404Q83.1779 10.6892 82.848 11.0791L82.848 7.24L81.128 7.24ZM94.352 18.76L94.352 7.24L101.288 7.24L101.288 9.168L96.28 9.168L96.28 12.04L100.328 12.04L100.328 13.96L96.28 13.96L96.28 18.76L94.352 18.76ZM130.768 18.76L130.768 7.24L132.712 7.24L132.712 10.5378Q132.753 10.5063 132.796 10.476Q133.632 9.88 134.864 9.88Q136.088 9.88 136.988 10.476Q137.888 11.072 138.384 12.1Q138.88 13.128 138.88 14.44Q138.88 15.736 138.392 16.768Q137.904 17.8 137.016 18.4Q136.128 19 134.936 19Q133.672 19 132.816 18.4Q132.634 18.2728 132.472 18.1259L132.472 18.76L130.768 18.76ZM160.416 7.24L160.4 18.76L162.368 18.76L162.368 14.6L165.672 18.76L168.224 18.76L164.584 14.44L167.936 10.12L165.528 10.12L162.368 14.28L162.368 7.24L160.416 7.24ZM79.28 18.76Q78.424 18.92 77.604 18.9Q76.784 18.88 76.136 18.596Q75.488 18.312 75.152 17.696Q74.856 17.136 74.84 16.552Q74.824 15.968 74.824 15.232L74.824 11.632L73.256 11.632L73.256 10.12L74.824 10.12L74.824 7.72L76.744 7.72L76.744 10.12L79.28 10.12L79.28 11.632L76.744 11.632L76.744 15.12Q76.744 15.64 76.756 16.032Q76.768 16.424 76.92 16.672Q77.208 17.152 77.84 17.208Q78.472 17.264 79.28 17.144L79.28 18.76ZM31.96 14.6L31.96 18.76L33.912 18.76L33.912 13.936Q33.912 13.624 33.86 13.124Q33.808 12.624 33.632 12.064Q33.456 11.504 33.088 11.008Q32.72 10.512 32.096 10.192Q31.472 9.872 30.512 9.872Q29.296 9.872 28.464 10.404Q28.0179 10.6892 27.688 11.0791L27.688 10.12L25.968 10.12L25.968 18.76L27.92 18.76L27.92 14.32Q27.92 13.528 28.096 13.02Q28.272 12.512 28.564 12.22Q28.856 11.928 29.216 11.808Q29.576 11.688 29.944 11.688Q30.632 11.688 31.036 11.984Q31.44 12.28 31.644 12.74Q31.848 13.2 31.904 13.696Q31.96 14.192 31.96 14.6ZM49.656 14.6L49.656 18.76L51.608 18.76L51.608 13.936Q51.608 13.624 51.556 13.124Q51.504 12.624 51.328 12.064Q51.152 11.504 50.784 11.008Q50.416 10.512 49.792 10.192Q49.168 9.872 48.208 9.872Q46.992 9.872 46.16 10.404Q45.7139 10.6892 45.384 11.0791L45.384 10.12L43.664 10.12L43.664 18.76L45.616 18.76L45.616 14.32Q45.616 13.528 45.792 13.02Q45.968 12.512 46.26 12.22Q46.552 11.928 46.912 11.808Q47.272 11.688 47.64 11.688Q48.328 11.688 48.732 11.984Q49.136 12.28 49.34 12.74Q49.544 13.2 49.6 13.696Q49.656 14.192 49.656 14.6ZM19.592 19Q18.4 19 17.512 18.4Q16.624 17.8 16.136 16.768Q15.648 15.736 15.648 14.44Q15.648 13.128 16.14 12.1Q16.632 11.072 17.536 10.476Q18.44 9.88 19.664 9.88Q20.896 9.88 21.732 10.476Q21.9024 10.5975 22.056 10.7371L22.056 10.12L23.744 10.12L23.744 19.176Q23.744 19.504 23.716 19.804Q23.688 20.104 23.624 20.392Q23.432 21.232 22.888 21.772Q22.344 22.312 21.54 22.576Q20.736 22.84 19.76 22.84Q19.04 22.84 18.38 22.616Q17.72 22.392 17.192 21.972Q16.664 21.552 16.328 20.96L18.104 20.08Q18.352 20.552 18.804 20.78Q19.256 21.008 19.768 21.008Q20.368 21.008 20.84 20.796Q21.312 20.584 21.572 20.172Q21.832 19.76 21.816 19.144L21.816 18.3243Q21.7648 18.363 21.712 18.4Q20.856 19 19.592 19ZM103.56 18.644Q104.208 19 105.144 19Q106.312 19 107.092 18.564Q107.692 18.2286 108.176 17.5974L108.176 18.76L109.864 18.76L109.864 13.456Q109.864 12.896 109.816 12.42Q109.768 11.944 109.536 11.488Q109.112 10.632 108.236 10.256Q107.36 9.88 106.208 9.88Q104.68 9.88 103.78 10.544Q102.88 11.208 102.56 12.304L104.32 12.856Q104.536 12.192 105.08 11.92Q105.624 11.648 106.208 11.648Q107.176 11.648 107.584 12.072Q107.924 12.4248 107.975 13.1045Q107.452 13.1819 106.956 13.252Q106.136 13.368 105.436 13.504Q104.736 13.64 104.216 13.808Q103.528 14.04 103.096 14.404Q102.664 14.768 102.456 15.268Q102.248 15.768 102.248 16.392Q102.248 17.104 102.58 17.696Q102.912 18.288 103.56 18.644ZM115.696 19Q114.36 19 113.416 18.404Q112.472 17.808 111.972 16.776Q111.472 15.744 111.464 14.44Q111.472 13.112 111.988 12.084Q112.504 11.056 113.456 10.468Q114.408 9.88 115.72 9.88Q117.192 9.88 118.212 10.62Q119.232 11.36 119.544 12.64L117.624 13.16Q117.4 12.464 116.88 12.076Q116.36 11.688 115.696 11.688Q114.944 11.688 114.456 12.044Q113.968 12.4 113.736 13.024Q113.504 13.648 113.504 14.44Q113.504 15.672 114.056 16.432Q114.608 17.192 115.696 17.192Q116.464 17.192 116.908 16.84Q117.352 16.488 117.576 15.824L119.544 16.264Q119.144 17.584 118.144 18.292Q117.144 19 115.696 19ZM122.776 18.432Q123.768 19 125.08 19Q126.328 19 127.364 18.352Q128.4 17.704 128.896 16.536L126.992 15.96Q126.712 16.56 126.196 16.876Q125.68 17.192 124.968 17.192Q123.864 17.192 123.288 16.472Q122.836 15.9066 122.739 14.976L128.992 14.976Q129.104 13.424 128.648 12.28Q128.192 11.136 127.252 10.508Q126.312 9.88 124.968 9.88Q123.696 9.88 122.728 10.456Q121.76 11.032 121.216 12.076Q120.672 13.12 120.672 14.536Q120.672 15.848 121.228 16.856Q121.784 17.864 122.776 18.432ZM142.192 18.416Q143.16 19 144.456 19Q145.752 19 146.72 18.42Q147.688 17.84 148.228 16.812Q148.768 15.784 148.768 14.44Q148.768 13.104 148.232 12.076Q147.696 11.048 146.728 10.464Q145.76 9.88 144.456 9.88Q143.184 9.88 142.216 10.456Q141.248 11.032 140.704 12.056Q140.16 13.08 140.16 14.44Q140.16 15.776 140.692 16.804Q141.224 17.832 142.192 18.416ZM154.344 19Q153.048 19 152.08 18.416Q151.112 17.832 150.58 16.804Q150.048 15.776 150.048 14.44Q150.048 13.08 150.592 12.056Q151.136 11.032 152.104 10.456Q153.072 9.88 154.344 9.88Q155.648 9.88 156.616 10.464Q157.584 11.048 158.12 12.076Q158.656 13.104 158.656 14.44Q158.656 15.784 158.116 16.812Q157.576 17.84 156.608 18.42Q155.64 19 154.344 19ZM58.728 18.76L56.088 10.104L57.976 10.12L59.664 15.664L61.376 10.12L63 10.12L64.704 15.664L66.4 10.12L68.288 10.12L65.648 18.76L64.144 18.76L62.184 12.816L60.232 18.76L58.728 18.76ZM11.8 10.12L11.8 18.76L13.728 18.76L13.728 10.12L11.8 10.12ZM71.816 10.12L69.888 10.12L69.888 18.76L71.816 18.76L71.816 10.12ZM127.035 13.52Q126.931 12.6763 126.584 12.216Q126.096 11.568 125.048 11.568Q123.864 11.568 123.288 12.3Q122.918 12.7704 122.786 13.52L127.035 13.52ZM21.836 15.92Q22.056 15.28 22.056 14.44Q22.056 13.592 21.836 12.956Q21.616 12.32 21.152 11.964Q20.688 11.608 19.952 11.608Q19.176 11.608 18.672 11.988Q18.168 12.368 17.928 13.012Q17.688 13.656 17.688 14.44Q17.688 15.232 17.924 15.876Q18.16 16.52 18.648 16.896Q19.136 17.272 19.888 17.272Q20.664 17.272 21.14 16.916Q21.616 16.56 21.836 15.92ZM132.692 15.92Q132.472 15.28 132.472 14.44Q132.472 13.592 132.692 12.956Q132.912 12.32 133.376 11.964Q133.84 11.608 134.576 11.608Q135.352 11.608 135.856 11.988Q136.36 12.368 136.6 13.012Q136.84 13.656 136.84 14.44Q136.84 15.232 136.604 15.876Q136.368 16.52 135.88 16.896Q135.392 17.272 134.64 17.272Q133.864 17.272 133.388 16.916Q132.912 16.56 132.692 15.92ZM146.168 16.424Q145.608 17.192 144.456 17.192Q143.344 17.192 142.772 16.444Q142.2 15.696 142.2 14.44Q142.2 13.624 142.44 13.004Q142.68 12.384 143.18 12.036Q143.68 11.688 144.456 11.688Q145.592 11.688 146.16 12.436Q146.728 13.184 146.728 14.44Q146.728 15.656 146.168 16.424ZM154.344 17.192Q155.496 17.192 156.056 16.424Q156.616 15.656 156.616 14.44Q156.616 13.184 156.048 12.436Q155.48 11.688 154.344 11.688Q153.568 11.688 153.068 12.036Q152.568 12.384 152.328 13.004Q152.088 13.624 152.088 14.44Q152.088 15.696 152.66 16.444Q153.232 17.192 154.344 17.192ZM106.648 17.232Q106.184 17.464 105.528 17.464Q105.072 17.464 104.764 17.32Q104.456 17.176 104.296 16.932Q104.136 16.688 104.136 16.368Q104.136 16.088 104.26 15.88Q104.384 15.672 104.616 15.512Q104.848 15.352 105.184 15.232Q105.528 15.12 105.976 15.028Q106.424 14.936 107.048 14.832Q107.447 14.7654 107.949 14.6857Q107.944 14.9049 107.932 15.188Q107.912 15.664 107.76 16.032Q107.664 16.328 107.388 16.664Q107.112 17 106.648 17.232Z" />
        </g>
        <g id="👑-Icon" transform="translate(0 1)">
          <g id="IconsFacebook">
            <path d="M24 0L24 24L0 24L0 0L24 0Z" id="Vector" fill="none" fill-rule="evenodd" stroke="none" />
            <g id="Facebook" transform="translate(2 2)">
              <path d="M20 9.99998C20 4.47715 15.5229 0 10 0C4.47715 0 0 4.47715 0 9.99998C0 14.9913 3.65686 19.1283 8.4375 19.8785L8.4375 12.8906L5.89844 12.8906L5.89844 9.99998L8.4375 9.99998L8.4375 7.79688C8.4375 5.29063 9.93043 3.90625 12.2146 3.90625C13.3087 3.90625 14.4531 4.10157 14.4531 4.10157L14.4531 6.5625L13.1921 6.5625C11.9499 6.5625 11.5625 7.33334 11.5625 8.12416L11.5625 9.99998L14.3359 9.99998L13.8926 12.8906L11.5625 12.8906L11.5625 19.8785C16.3431 19.1283 20 14.9913 20 9.99998Z" id="Path" fill="#1877F2" fill-rule="evenodd" stroke="none" />
              <path d="M13.8926 12.8906L14.3359 9.99998L11.5625 9.99998L11.5625 8.12414C11.5625 7.33332 11.9499 6.56248 13.1921 6.56248L14.4531 6.56248L14.4531 4.10154C14.4531 4.10154 13.3087 3.90623 12.2146 3.90623C9.93043 3.90623 8.4375 5.2906 8.4375 7.79685L8.4375 9.99998L5.89844 9.99998L5.89844 12.8906L8.4375 12.8906L8.4375 19.8785C8.94662 19.9584 9.46844 20 10 20C10.5316 20 11.0534 19.9584 11.5625 19.8785L11.5625 12.8906L13.8926 12.8906Z" id="Path" fill="#FFFFFF" fill-rule="evenodd" stroke="none" />
            </g>
          </g>
        </g>
      </g>
    </g>
  </g>
</svg>