<?xml version="1.0" encoding="utf-8"?>
<svg width="92px" height="24px" viewBox="0 0 92 24" version="1.1" xmlns:xlink="http://www.w3.org/1999/xlink" xmlns="http://www.w3.org/2000/svg">
  <defs>
    <path d="M0 0L24 0L24 24L0 24L0 0Z" id="path_1" />
    <clipPath id="mask_1">
      <use xlink:href="#path_1" />
    </clipPath>
  </defs>
  <g id="Full-Logo">
    <g id="Group" transform="matrix(1 0 0 1 -5.684342E-14 0)">
      <g id="Symbol">
        <path d="M0 0L24 0L24 24L0 24L0 0Z" id="Base" fill="none" fill-rule="evenodd" stroke="none" />
        <g clip-path="url(#mask_1)">
          <path d="M16.999 4L17.001 4Q17.1975 4 17.393 4.01926Q17.5885 4.03851 17.7812 4.07684Q17.9738 4.11517 18.1618 4.1722Q18.3498 4.22922 18.5313 4.30441Q18.7129 4.37959 18.8861 4.4722Q19.0594 4.56481 19.2227 4.67395Q19.3861 4.7831 19.5379 4.90773Q19.6898 5.03236 19.8287 5.17128Q19.9676 5.3102 20.0923 5.46206Q20.2169 5.61392 20.326 5.77727Q20.4352 5.94062 20.5278 6.11388Q20.6204 6.28714 20.6956 6.46865Q20.7708 6.65015 20.8278 6.83815Q20.8848 7.02615 20.9232 7.21883Q20.9615 7.41152 20.9807 7.60703Q21 7.80254 21 7.999L21 18.001Q21 18.0992 20.9904 18.1969Q20.9807 18.2947 20.9616 18.391Q20.9424 18.4873 20.9139 18.5813Q20.8854 18.6753 20.8478 18.766Q20.8103 18.8567 20.764 18.9433Q20.7177 19.0299 20.6631 19.1116Q20.6085 19.1932 20.5462 19.2692Q20.4839 19.3451 20.4145 19.4145Q20.3451 19.4839 20.2691 19.5462Q20.1932 19.6085 20.1116 19.6631Q20.0299 19.7177 19.9433 19.764Q19.8567 19.8103 19.766 19.8478Q19.6753 19.8854 19.5813 19.9139Q19.4873 19.9424 19.391 19.9616Q19.2947 19.9807 19.1969 19.9904Q19.0992 20 19.001 20L14.999 20Q14.9008 20 14.8031 19.9904Q14.7053 19.9807 14.609 19.9616Q14.5127 19.9424 14.4187 19.9139Q14.3247 19.8854 14.234 19.8478Q14.1433 19.8103 14.0567 19.764Q13.9701 19.7177 13.8884 19.6631Q13.8068 19.6085 13.7308 19.5462Q13.6549 19.4839 13.5855 19.4145Q13.5161 19.3451 13.4538 19.2692Q13.3914 19.1932 13.3369 19.1116Q13.2823 19.0299 13.236 18.9433Q13.1897 18.8567 13.1522 18.766Q13.1146 18.6753 13.0861 18.5813Q13.0576 18.4873 13.0384 18.391Q13.0192 18.2947 13.0096 18.1969Q13 18.0992 13 18.001L13 7.999Q13 7.80254 13.0193 7.60703Q13.0385 7.41152 13.0768 7.21883Q13.1152 7.02615 13.1722 6.83815Q13.2292 6.65015 13.3044 6.46865Q13.3796 6.28714 13.4722 6.11388Q13.5648 5.94062 13.674 5.77727Q13.7831 5.61392 13.9077 5.46206Q14.0324 5.3102 14.1713 5.17128Q14.3102 5.03236 14.4621 4.90773Q14.6139 4.7831 14.7773 4.67395Q14.9406 4.56481 15.1139 4.4722Q15.2871 4.37959 15.4686 4.30441Q15.6502 4.22922 15.8382 4.1722Q16.0261 4.11517 16.2188 4.07684Q16.4115 4.03851 16.607 4.01926Q16.8025 4 16.999 4Z" id="Rectangle" fill="#928FFF" fill-rule="evenodd" stroke="none" />
          <path d="M6.999 10L7.001 10Q7.19746 10 7.39297 10.0193Q7.58848 10.0385 7.78117 10.0768Q7.97385 10.1152 8.16185 10.1722Q8.34985 10.2292 8.53135 10.3044Q8.71285 10.3796 8.88612 10.4722Q9.05938 10.5648 9.22272 10.674Q9.38608 10.7831 9.53794 10.9077Q9.6898 11.0324 9.82872 11.1713Q9.96764 11.3102 10.0923 11.4621Q10.2169 11.6139 10.326 11.7773Q10.4352 11.9406 10.5278 12.1139Q10.6204 12.2871 10.6956 12.4686Q10.7708 12.6502 10.8278 12.8382Q10.8848 13.0262 10.9232 13.2188Q10.9615 13.4115 10.9807 13.607Q11 13.8025 11 13.999L11 18.001Q11 18.0992 10.9904 18.1969Q10.9807 18.2947 10.9616 18.391Q10.9424 18.4873 10.9139 18.5813Q10.8854 18.6753 10.8478 18.766Q10.8103 18.8567 10.764 18.9433Q10.7177 19.0299 10.6631 19.1116Q10.6085 19.1932 10.5462 19.2692Q10.4839 19.3451 10.4145 19.4145Q10.3451 19.4839 10.2692 19.5462Q10.1932 19.6085 10.1116 19.6631Q10.0299 19.7177 9.94332 19.764Q9.85671 19.8103 9.76598 19.8478Q9.67525 19.8854 9.58128 19.9139Q9.4873 19.9424 9.39098 19.9616Q9.29467 19.9807 9.19694 19.9904Q9.0992 20 9.001 20L4.999 20Q4.9008 20 4.80306 19.9904Q4.70533 19.9807 4.60901 19.9616Q4.5127 19.9424 4.41872 19.9139Q4.32474 19.8854 4.23401 19.8478Q4.14329 19.8103 4.05668 19.764Q3.97007 19.7177 3.88841 19.6631Q3.80676 19.6085 3.73085 19.5462Q3.65493 19.4839 3.58549 19.4145Q3.51605 19.3451 3.45375 19.2692Q3.39145 19.1932 3.33689 19.1116Q3.28233 19.0299 3.23604 18.9433Q3.18975 18.8567 3.15216 18.766Q3.11458 18.6753 3.08608 18.5813Q3.05757 18.4873 3.03841 18.391Q3.01925 18.2947 3.00963 18.1969Q3 18.0992 3 18.001L3 13.999Q3 13.8025 3.01926 13.607Q3.03851 13.4115 3.07684 13.2188Q3.11517 13.0262 3.1722 12.8382Q3.22922 12.6502 3.3044 12.4686Q3.37959 12.2871 3.4722 12.1139Q3.56481 11.9406 3.67395 11.7773Q3.7831 11.6139 3.90773 11.4621Q4.03236 11.3102 4.17128 11.1713Q4.3102 11.0324 4.46206 10.9077Q4.61393 10.7831 4.77727 10.674Q4.94062 10.5648 5.11388 10.4722Q5.28714 10.3796 5.46865 10.3044Q5.65015 10.2292 5.83815 10.1722Q6.02615 10.1152 6.21883 10.0768Q6.41152 10.0385 6.60703 10.0193Q6.80254 10 6.999 10Z" id="Rectangle" fill="#4A44C6" fill-rule="evenodd" stroke="none" />
        </g>
      </g>
      <path d="M30.0355 17.1431C30.0355 15.8865 30.0355 13.9123 30.0355 13.9123C30.0355 13.9123 33.0255 13.9123 33.0255 13.9123C33.1381 13.9123 33.2887 13.9067 33.4773 13.8954C33.666 13.8842 33.8391 13.8673 33.9968 13.8448C34.695 13.7378 35.2735 13.5042 35.7324 13.1439C36.1913 12.7836 36.5334 12.329 36.7586 11.7801C36.9839 11.2313 37.0965 10.6247 37.0965 9.96039C37.0965 9.29047 36.9853 8.68107 36.7629 8.13219C36.5405 7.58331 36.1998 7.12872 35.7409 6.76843C35.282 6.40814 34.7006 6.17452 33.9968 6.06755C33.8391 6.03941 33.6674 6.02111 33.4815 6.01267C33.2957 6.00422 33.1437 6 33.0255 6L30.0256 6C28.9069 6 28 6.90691 28 8.02564L28 17.1431Q28 17.2432 28.0195 17.3414Q28.0391 17.4396 28.0774 17.5322Q28.1157 17.6247 28.1714 17.7079Q28.227 17.7912 28.2978 17.862Q28.3686 17.9328 28.4519 17.9885Q28.5351 18.0441 28.6277 18.0824Q28.7202 18.1208 28.8184 18.1403Q28.9166 18.1598 29.0168 18.1598L29.0188 18.1598Q29.1189 18.1598 29.2171 18.1403Q29.3153 18.1208 29.4079 18.0824Q29.5004 18.0441 29.5836 17.9885Q29.6669 17.9328 29.7377 17.862Q29.8085 17.7912 29.8642 17.7079Q29.9198 17.6247 29.9581 17.5322Q29.9964 17.4396 30.016 17.3414Q30.0355 17.2432 30.0355 17.1431ZM30.0355 11L30.0355 8.92074C30.0355 8.36165 30.4888 7.90842 31.0478 7.90842C31.8863 7.90842 32.941 7.90842 32.941 7.90842C33.0536 7.90842 33.1803 7.91264 33.3211 7.92108C33.4618 7.92953 33.5913 7.95064 33.7096 7.98442C34.0474 8.06886 34.3135 8.21804 34.5078 8.43196C34.702 8.64589 34.84 8.88937 34.9216 9.1624C35.0033 9.43543 35.0441 9.70143 35.0441 9.96039C35.0441 10.2193 35.0033 10.4839 34.9216 10.7542C34.84 11.0244 34.702 11.2664 34.5078 11.4804C34.3135 11.6943 34.0474 11.8435 33.7096 11.9279C33.5913 11.9617 33.4618 11.9842 33.3211 11.9955C33.1803 12.0067 33.0536 12.0124 32.941 12.0124L31.0478 12.0124C30.4888 12.0124 30.0355 11.5591 30.0355 11ZM40.6392 18.4132C41.4613 18.4132 42.1468 18.2598 42.6958 17.9529C43.0618 17.7484 43.3972 17.4657 43.7018 17.1048C43.7018 17.1048 43.8403 16.9326 43.8403 16.9326L43.8403 17.6739Q43.8403 17.7467 43.8545 17.8181Q43.8687 17.8895 43.8965 17.9568Q43.9244 18.024 43.9649 18.0846Q44.0053 18.1451 44.0568 18.1966Q44.1083 18.2481 44.1688 18.2886Q44.2294 18.329 44.2966 18.3569Q44.3639 18.3847 44.4353 18.3989Q44.5067 18.4132 44.5795 18.4132L44.7323 18.4132C45.2239 18.4132 45.6224 18.0147 45.6224 17.5231C45.6224 15.8856 45.6224 12.5612 45.6224 12.5612C45.6224 12.1672 45.6055 11.8027 45.5717 11.4677C45.5379 11.1327 45.4394 10.8048 45.2761 10.4839C44.9777 9.88157 44.5202 9.4481 43.9036 9.18351C43.287 8.91892 42.5733 8.78663 41.7625 8.78663C40.687 8.78663 39.8326 9.02025 39.1991 9.48751C38.759 9.81213 38.4174 10.2101 38.1744 10.6815C37.9934 11.0325 38.2166 11.4411 38.5935 11.5593L38.8755 11.6477C39.3691 11.8024 39.8718 11.4844 40.2627 11.1455C40.3556 11.065 40.4586 10.9964 40.5716 10.9399C40.9545 10.7485 41.3515 10.6528 41.7625 10.6528C42.4438 10.6528 42.9281 10.802 43.2152 11.1004C43.4386 11.3324 43.5734 11.665 43.6196 12.0979C43.6196 12.0979 43.6263 12.1906 43.6263 12.1906C43.6263 12.1906 43.1383 12.2619 43.1383 12.2619C43.1383 12.2619 42.5522 12.3459 42.5522 12.3459C41.9751 12.4275 41.4402 12.5162 40.9475 12.6119C40.4548 12.7076 40.0254 12.8146 39.6594 12.9328C39.1752 13.096 38.781 13.3057 38.477 13.5619C38.1729 13.818 37.9477 14.122 37.8013 14.4739C37.6549 14.8257 37.5817 15.2212 37.5817 15.6603C37.5817 16.1613 37.6985 16.6201 37.9322 17.0367C38.1659 17.4533 38.5107 17.7869 38.9668 18.0374C39.4229 18.2879 39.9804 18.4132 40.6392 18.4132ZM41.0446 16.7918C40.7236 16.7918 40.4548 16.7412 40.238 16.6398C40.0212 16.5385 39.8565 16.402 39.7439 16.2303C39.6313 16.0586 39.575 15.8602 39.575 15.635C39.575 15.4379 39.6186 15.2662 39.7059 15.1199C39.7932 14.9735 39.9184 14.844 40.0817 14.7314C40.245 14.6188 40.4449 14.5203 40.6814 14.4359C40.9235 14.3571 41.2023 14.2853 41.5176 14.2205C41.8329 14.1558 42.2102 14.0868 42.6494 14.0137C42.869 13.9771 43.1104 13.9377 43.3736 13.8954L43.6 13.8598L43.5962 14.0179C43.5945 14.0747 43.5925 14.1341 43.5903 14.1961L43.5827 14.3894C43.5686 14.7244 43.508 15.0214 43.4011 15.2803C43.3335 15.4886 43.2026 15.711 43.0083 15.9474C42.8141 16.1839 42.5536 16.3837 42.2271 16.547C41.9005 16.7102 41.5063 16.7918 41.0446 16.7918ZM50.2365 21.4084L54.2256 10.1834Q54.2504 10.1137 54.2605 10.0404Q54.2706 9.96718 54.2655 9.8934Q54.2605 9.81963 54.2406 9.74842Q54.2207 9.67721 54.1867 9.61153Q54.1528 9.54585 54.1062 9.48844Q54.0595 9.43104 54.0022 9.38431Q53.9449 9.33758 53.8793 9.30348Q53.8137 9.26937 53.7425 9.24931L53.7406 9.24878Q53.6654 9.22758 53.5876 9.22061Q53.5098 9.21363 53.432 9.22112Q53.3542 9.2286 53.2791 9.2503Q53.204 9.27199 53.1342 9.30714Q53.0644 9.3423 53.0023 9.38971Q52.9402 9.43712 52.8878 9.49517Q52.8355 9.55322 52.7948 9.61991Q52.7541 9.68661 52.7263 9.75967L50.5212 15.5665L48.2901 9.84936Q48.2576 9.76612 48.2107 9.69004Q48.1638 9.61397 48.1041 9.54753Q48.0443 9.48109 47.9736 9.42643Q47.9029 9.37177 47.8236 9.33067Q47.7442 9.28957 47.6588 9.26335Q47.5734 9.23713 47.4846 9.22664Q47.3959 9.21616 47.3067 9.22175Q47.2175 9.22733 47.1308 9.24881L47.1289 9.2493Q47.0893 9.2591 47.051 9.27301Q47.0126 9.28693 46.976 9.3048Q46.9393 9.32267 46.9048 9.34431Q46.8702 9.36594 46.8381 9.39109Q46.8061 9.41625 46.7768 9.44464Q46.7476 9.47304 46.7214 9.50435Q46.6953 9.53567 46.6727 9.56956Q46.65 9.60346 46.6311 9.63955Q46.6121 9.67564 46.597 9.71353Q46.582 9.75142 46.571 9.79068Q46.56 9.82994 46.5532 9.87015Q46.5464 9.91035 46.5439 9.95104Q46.5414 9.99173 46.5432 10.0325Q46.545 10.0732 46.551 10.1135Q46.5571 10.1538 46.5674 10.1933Q46.5777 10.2327 46.5921 10.2709L49.5414 18.096L48.5916 20.8977Q48.5649 20.9766 48.5543 21.0593Q48.5437 21.1419 48.5498 21.225Q48.5558 21.3081 48.5782 21.3883Q48.6005 21.4686 48.6384 21.5428Q48.6762 21.617 48.728 21.6823Q48.7798 21.7475 48.8436 21.8012Q48.9073 21.8548 48.9804 21.8948Q49.0535 21.9348 49.133 21.9595L49.1349 21.9601Q49.2164 21.9853 49.3012 21.9947Q49.386 22.004 49.4711 21.997Q49.5561 21.9901 49.6383 21.9671Q49.7204 21.9441 49.7967 21.9059Q49.873 21.8677 49.9407 21.8156Q50.0083 21.7636 50.0648 21.6997Q50.1213 21.6358 50.1646 21.5623Q50.208 21.4888 50.2365 21.4084ZM60.2079 18.4132C61.0469 18.4132 61.7789 18.202 62.4039 17.7798C63.0289 17.3576 63.5132 16.7834 63.8567 16.0572C64.2001 15.331 64.3719 14.5119 64.3719 13.5999C64.3719 12.6766 64.1973 11.8533 63.8482 11.1299C63.4991 10.4065 63.0078 9.83513 62.3744 9.41573C61.7409 8.99633 60.9934 8.78663 60.1319 8.78663C59.2648 8.78663 58.537 8.99633 57.9486 9.41573C57.9486 9.41573 57.8599 9.48375 57.8599 9.48375L57.8599 7.02521Q57.8599 6.92423 57.8402 6.8252Q57.8205 6.72616 57.7819 6.63288Q57.7432 6.53959 57.6871 6.45563Q57.631 6.37167 57.5596 6.30028Q57.4882 6.22888 57.4043 6.17278Q57.3203 6.11668 57.227 6.07804Q57.1337 6.0394 57.0347 6.0197Q56.9357 6 56.8347 6L56.8327 6Q56.7317 6 56.6327 6.0197Q56.5337 6.0394 56.4404 6.07804Q56.3471 6.11668 56.2631 6.17278Q56.1792 6.22888 56.1078 6.30028Q56.0364 6.37167 55.9803 6.45563Q55.9242 6.53959 55.8855 6.63288Q55.8469 6.72616 55.8272 6.8252Q55.8075 6.92423 55.8075 7.02521L55.8075 17.5146Q55.8075 17.6031 55.8248 17.6899Q55.842 17.7767 55.8759 17.8585Q55.9098 17.9402 55.9589 18.0138Q56.0081 18.0874 56.0707 18.15Q56.1332 18.2126 56.2068 18.2617Q56.2804 18.3109 56.3622 18.3448Q56.4439 18.3786 56.5307 18.3959Q56.6175 18.4132 56.706 18.4132L57.1459 18.4132Q57.1913 18.4132 57.2358 18.4043Q57.2803 18.3955 57.3222 18.3781Q57.3641 18.3607 57.4018 18.3355Q57.4395 18.3103 57.4716 18.2782Q57.5037 18.2462 57.5289 18.2084Q57.5541 18.1707 57.5715 18.1288Q57.5888 18.0869 57.5977 18.0424Q57.6065 17.9979 57.6065 17.9525L57.6065 17.4899C57.6065 17.4899 57.7744 17.6334 57.7744 17.6334C57.7744 17.6334 57.9697 17.7798 57.9697 17.7798C58.5722 18.202 59.3183 18.4132 60.2079 18.4132ZM59.8954 16.5892C59.3493 16.5892 58.9086 16.4639 58.5736 16.2134C58.2386 15.9629 57.9936 15.6125 57.8388 15.1621C57.684 14.7117 57.6065 14.191 57.6065 13.5999C57.6065 13.0032 57.684 12.481 57.8388 12.0335C57.9936 11.5859 58.2344 11.2369 58.5609 10.9864C58.8875 10.7359 59.3098 10.6106 59.8279 10.6106C60.3741 10.6106 60.8245 10.7443 61.1792 11.0117C61.534 11.2791 61.7958 11.6394 61.9647 12.0926C62.1337 12.5458 62.2181 13.0482 62.2181 13.5999C62.2181 14.1572 62.1351 14.6625 61.969 15.1156C61.8029 15.5688 61.5481 15.9277 61.2046 16.1923C60.8611 16.4569 60.4247 16.5892 59.8954 16.5892ZM68.3115 18.4132C69.1336 18.4132 69.8192 18.2598 70.3682 17.9529C70.7342 17.7484 71.0695 17.4657 71.3742 17.1048C71.3742 17.1048 71.5126 16.9326 71.5126 16.9326L71.5126 17.5472Q71.5126 17.6075 71.5244 17.6667Q71.5362 17.7259 71.5592 17.7816Q71.5823 17.8374 71.6159 17.8876Q71.6494 17.9377 71.6921 17.9804Q71.7347 18.0231 71.7849 18.0566Q71.8351 18.0901 71.8908 18.1132Q71.9465 18.1363 72.0057 18.1481Q72.0649 18.1598 72.1252 18.1598L72.4047 18.1598C72.8963 18.1598 73.2948 17.7613 73.2948 17.2698C73.2948 15.6902 73.2948 12.5612 73.2948 12.5612C73.2948 12.1672 73.2779 11.8027 73.2441 11.4677C73.2103 11.1327 73.1118 10.8048 72.9485 10.4839C72.65 9.88157 72.1925 9.4481 71.576 9.18351C70.9594 8.91892 70.2457 8.78663 69.4349 8.78663C68.3594 8.78663 67.5049 9.02025 66.8715 9.48751C66.4314 9.81213 66.0898 10.2101 65.8468 10.6815C65.6657 11.0325 65.889 11.4411 66.2659 11.5593L66.5478 11.6477C67.0414 11.8024 67.5442 11.4844 67.935 11.1455C68.028 11.065 68.1309 10.9964 68.244 10.9399C68.6269 10.7485 69.0238 10.6528 69.4349 10.6528C70.1162 10.6528 70.6004 10.802 70.8876 11.1004C71.111 11.3324 71.2458 11.665 71.292 12.0979C71.292 12.0979 71.2987 12.1906 71.2987 12.1906C71.2987 12.1906 70.8107 12.2619 70.8107 12.2619C70.8107 12.2619 70.2246 12.3459 70.2246 12.3459C69.6474 12.4275 69.1125 12.5162 68.6198 12.6119C68.1271 12.7076 67.6978 12.8146 67.3318 12.9328C66.8475 13.096 66.4534 13.3057 66.1493 13.5619C65.8453 13.818 65.62 14.122 65.4736 14.4739C65.3272 14.8257 65.254 15.2212 65.254 15.6603C65.254 16.1613 65.3709 16.6201 65.6046 17.0367C65.8382 17.4533 66.1831 17.7869 66.6392 18.0374C67.0953 18.2879 67.6527 18.4132 68.3115 18.4132ZM68.717 16.7918C68.396 16.7918 68.1271 16.7412 67.9104 16.6398C67.6936 16.5385 67.5289 16.402 67.4163 16.2303C67.3036 16.0586 67.2473 15.8602 67.2473 15.635C67.2473 15.4379 67.291 15.2662 67.3783 15.1199C67.4655 14.9735 67.5908 14.844 67.7541 14.7314C67.9174 14.6188 68.1173 14.5203 68.3538 14.4359C68.5959 14.3571 68.8746 14.2853 69.1899 14.2205C69.5053 14.1558 69.8825 14.0868 70.3217 14.0137C70.5413 13.9771 70.7827 13.9377 71.046 13.8954L71.2724 13.8598L71.2685 14.0179C71.2668 14.0747 71.2649 14.1341 71.2626 14.1961L71.255 14.3894C71.2409 14.7244 71.1804 15.0214 71.0734 15.2803C71.0059 15.4886 70.8749 15.711 70.6807 15.9474C70.4864 16.1839 70.226 16.3837 69.8994 16.547C69.5728 16.7102 69.1787 16.7918 68.717 16.7918ZM78.5436 18.4132C79.7204 18.4132 80.6424 18.1514 81.3097 17.6278C81.9769 17.1043 82.3105 16.3837 82.3105 15.4661C82.3105 14.9932 82.2134 14.5907 82.0192 14.2585C81.8249 13.9264 81.5096 13.6407 81.0732 13.4015C80.6368 13.1622 80.0554 12.9497 79.3291 12.7639C78.6196 12.5838 78.0861 12.4318 77.7285 12.3079C77.371 12.1841 77.1331 12.0602 77.0148 11.9364C76.8966 11.8125 76.8374 11.6633 76.8374 11.4888C76.8374 11.1792 76.9839 10.9385 77.2766 10.7668C77.5695 10.5951 77.9552 10.5233 78.4338 10.5515C78.9349 10.5796 79.3361 10.7063 79.6373 10.9315C79.731 11.0015 79.8126 11.0795 79.8821 11.1653C80.1435 11.4883 80.4968 11.7926 80.9059 11.7195L81.6396 11.5883C81.9728 11.5287 82.2112 11.2048 82.0963 10.8863C81.9864 10.5817 81.827 10.304 81.618 10.0533C81.2801 9.64795 80.8367 9.33551 80.2877 9.11596C79.7387 8.8964 79.1095 8.78663 78.4 8.78663C77.6736 8.78663 77.043 8.90063 76.5081 9.12862C75.9731 9.35662 75.5565 9.68173 75.258 10.1039C74.9596 10.5262 74.8104 11.0216 74.8104 11.5901C74.8104 12.0461 74.9089 12.4346 75.106 12.7555C75.3031 13.0763 75.6268 13.3536 76.0773 13.5872C76.5278 13.8209 77.1359 14.039 77.9017 14.2417C78.5886 14.4218 79.0982 14.571 79.4304 14.6892C79.7626 14.8074 79.978 14.9299 80.0765 15.0565C80.1751 15.1832 80.2243 15.3507 80.2243 15.559C80.2243 15.8967 80.0906 16.1627 79.8232 16.357C79.5557 16.5512 79.177 16.6483 78.6872 16.6483C78.1297 16.6483 77.668 16.5188 77.302 16.2599C77.2164 16.1993 77.138 16.1336 77.0666 16.0626C76.6745 15.6728 76.1496 15.2643 75.6032 15.3487L75.2116 15.4091C74.8267 15.4686 74.5578 15.8326 74.692 16.1981C74.911 16.7947 75.2798 17.2798 75.7986 17.6532C76.5024 18.1598 77.4174 18.4132 78.5436 18.4132ZM91.9767 14.1657C92.0555 13.0735 91.9344 12.125 91.6135 11.3199C91.2925 10.5149 90.8013 9.89143 90.1396 9.44951C89.478 9.00759 88.6742 8.78663 87.7283 8.78663C86.833 8.78663 86.0447 8.98929 85.3634 9.39462C84.682 9.79995 84.1499 10.3699 83.767 11.1046C83.3841 11.8393 83.1927 12.7048 83.1927 13.7012C83.1927 14.6245 83.3884 15.4408 83.7797 16.1501C84.171 16.8594 84.7158 17.4139 85.414 17.8136C86.1122 18.2133 86.9231 18.4132 87.8465 18.4132C88.7249 18.4132 89.5287 18.1852 90.2579 17.7292C90.7947 17.3935 91.2285 16.9586 91.5594 16.4246C91.76 16.1008 91.5798 15.7229 91.2152 15.6126L90.8113 15.4905C90.2888 15.3324 89.6949 15.6376 89.2773 15.9893C89.1982 16.0559 89.114 16.1166 89.0248 16.1712C88.6616 16.3936 88.2294 16.5047 87.7283 16.5047C86.9512 16.5047 86.36 16.2514 85.9546 15.7448C85.6597 15.3763 85.4721 14.8976 85.3917 14.3088C85.3917 14.3088 85.3756 14.1657 85.3756 14.1657C85.3756 14.1657 90.98 14.1657 90.98 14.1657C90.98 14.1657 91.9767 14.1657 91.9767 14.1657ZM89.9093 12.6288L85.4244 12.6288L85.452 12.4853C85.5365 12.089 85.6716 11.7521 85.8575 11.4748L85.9546 11.341C86.36 10.8259 86.9794 10.5684 87.8127 10.5684C88.5504 10.5684 89.0909 10.7964 89.4344 11.2524C89.6634 11.5564 89.8173 11.9792 89.8961 12.5209L89.9093 12.6288Z" id="Paybase" fill="#121826" fill-rule="evenodd" stroke="none" />
    </g>
  </g>
</svg>