<?xml version="1.0" encoding="utf-8"?>
<svg width="327px" height="64px" viewBox="0 0 327 64" version="1.1" xmlns:xlink="http://www.w3.org/1999/xlink" xmlns="http://www.w3.org/2000/svg">
  <g id="Google">
    <g id="ButtonsLargeIcon+LabelRest">
      <path d="M23.999 0L303.001 0Q303.59 0 304.179 0.0289078Q304.767 0.0578157 305.353 0.115562Q305.94 0.173308 306.522 0.259753Q307.105 0.346198 307.683 0.461134Q308.261 0.57607 308.832 0.71922Q309.404 0.86237 309.968 1.03339Q310.531 1.20441 311.086 1.40288Q311.641 1.60136 312.185 1.82681Q312.729 2.05227 313.262 2.30416Q313.794 2.55605 314.314 2.83377Q314.834 3.11149 315.339 3.41437Q315.844 3.71725 316.334 4.04456Q316.824 4.37187 317.297 4.72282Q317.77 5.07377 318.226 5.44752Q318.681 5.82127 319.118 6.21691Q319.554 6.61256 319.971 7.02914Q320.387 7.44573 320.783 7.88226Q321.179 8.31878 321.552 8.77419Q321.926 9.22961 322.277 9.70281Q322.628 10.176 322.955 10.6659Q323.283 11.1557 323.586 11.661Q323.888 12.1664 324.166 12.6859Q324.444 13.2055 324.696 13.7381Q324.948 14.2707 325.173 14.815Q325.399 15.3593 325.597 15.914Q325.796 16.4687 325.967 17.0325Q326.138 17.5962 326.281 18.1677Q326.424 18.7392 326.539 19.317Q326.654 19.8948 326.74 20.4776Q326.827 21.0604 326.884 21.6467Q326.942 22.233 326.971 22.8214Q327 23.4099 327 23.999L327 40.001Q327 40.5901 326.971 41.1786Q326.942 41.767 326.884 42.3533Q326.827 42.9396 326.74 43.5224Q326.654 44.1051 326.539 44.683Q326.424 45.2608 326.281 45.8323Q326.138 46.4038 325.967 46.9675Q325.796 47.5313 325.597 48.086Q325.399 48.6407 325.173 49.185Q324.948 49.7293 324.696 50.2619Q324.444 50.7945 324.166 51.314Q323.888 51.8336 323.586 52.3389Q323.283 52.8443 322.955 53.3341Q322.628 53.824 322.277 54.2972Q321.926 54.7704 321.552 55.2258Q321.179 55.6812 320.783 56.1177Q320.387 56.5543 319.971 56.9709Q319.554 57.3874 319.118 57.7831Q318.681 58.1787 318.226 58.5525Q317.77 58.9262 317.297 59.2772Q316.824 59.6281 316.334 59.9554Q315.844 60.2827 315.339 60.5856Q314.834 60.8885 314.314 61.1662Q313.794 61.4439 313.262 61.6958Q312.729 61.9477 312.185 62.1732Q311.641 62.3986 311.086 62.5971Q310.531 62.7956 309.968 62.9666Q309.404 63.1376 308.832 63.2808Q308.261 63.4239 307.683 63.5389Q307.105 63.6538 306.522 63.7402Q305.94 63.8267 305.353 63.8844Q304.767 63.9422 304.179 63.9711Q303.59 64 303.001 64L23.999 64Q23.4099 64 22.8214 63.9711Q22.233 63.9422 21.6467 63.8844Q21.0604 63.8267 20.4776 63.7402Q19.8948 63.6538 19.317 63.5389Q18.7392 63.4239 18.1677 63.2808Q17.5962 63.1376 17.0325 62.9666Q16.4687 62.7956 15.914 62.5971Q15.3593 62.3986 14.815 62.1732Q14.2707 61.9477 13.7381 61.6958Q13.2055 61.4439 12.6859 61.1662Q12.1664 60.8885 11.661 60.5856Q11.1557 60.2827 10.6659 59.9554Q10.176 59.6281 9.70281 59.2772Q9.22961 58.9262 8.77419 58.5525Q8.31878 58.1787 7.88226 57.7831Q7.44573 57.3874 7.02914 56.9709Q6.61256 56.5543 6.21691 56.1177Q5.82127 55.6812 5.44752 55.2258Q5.07377 54.7704 4.72282 54.2972Q4.37187 53.824 4.04456 53.3341Q3.71725 52.8443 3.41437 52.3389Q3.11149 51.8336 2.83377 51.314Q2.55605 50.7945 2.30416 50.2619Q2.05227 49.7293 1.82681 49.185Q1.60136 48.6407 1.40288 48.086Q1.20441 47.5313 1.03339 46.9675Q0.86237 46.4038 0.71922 45.8323Q0.57607 45.2608 0.461134 44.683Q0.346198 44.1051 0.259753 43.5224Q0.173308 42.9396 0.115562 42.3533Q0.0578157 41.767 0.0289078 41.1786Q0 40.5901 0 40.001L0 23.999Q0 23.4099 0.0289078 22.8214Q0.0578157 22.233 0.115562 21.6467Q0.173308 21.0604 0.259753 20.4776Q0.346198 19.8948 0.461134 19.317Q0.57607 18.7392 0.71922 18.1677Q0.86237 17.5962 1.03339 17.0325Q1.20441 16.4687 1.40288 15.914Q1.60136 15.3593 1.82681 14.815Q2.05227 14.2707 2.30416 13.7381Q2.55605 13.2055 2.83377 12.6859Q3.11149 12.1664 3.41437 11.661Q3.71725 11.1557 4.04456 10.6659Q4.37187 10.176 4.72282 9.70281Q5.07377 9.22961 5.44752 8.77419Q5.82127 8.31878 6.21691 7.88226Q6.61256 7.44573 7.02914 7.02914Q7.44573 6.61256 7.88226 6.21691Q8.31878 5.82127 8.77419 5.44752Q9.22961 5.07377 9.70281 4.72282Q10.176 4.37187 10.6659 4.04456Q11.1557 3.71725 11.661 3.41437Q12.1664 3.11149 12.6859 2.83377Q13.2055 2.55605 13.7381 2.30416Q14.2707 2.05227 14.815 1.82681Q15.3593 1.60136 15.914 1.40288Q16.4687 1.20441 17.0325 1.03339Q17.5962 0.86237 18.1677 0.71922Q18.7392 0.57607 19.317 0.461134Q19.8948 0.346198 20.4776 0.259753Q21.0604 0.173308 21.6467 0.115562Q22.233 0.0578157 22.8214 0.0289078Q23.4099 0 23.999 0Z" id="Base" fill="none" fill-rule="evenodd" stroke="#F4F4F6" stroke-width="1.5" stroke-linecap="round" stroke-linejoin="round" />
      <g id="Content" transform="translate(121 19)">
        <g id="Sign-In-with-Google" fill="#121826" transform="translate(32 0)">
          <path d="M99.104 19Q97.984 19 97.004 18.604Q96.024 18.208 95.284 17.44Q94.544 16.672 94.128 15.556Q93.712 14.44 93.712 13Q93.712 11.112 94.416 9.772Q95.12 8.432 96.344 7.716Q97.568 7 99.104 7Q101.232 7 102.476 7.988Q103.72 8.976 104.16 10.76L102.192 11.072Q101.864 10.048 101.12 9.436Q100.376 8.824 99.224 8.824Q98.064 8.808 97.296 9.328Q96.528 9.848 96.14 10.792Q95.752 11.736 95.752 13Q95.752 14.264 96.136 15.196Q96.52 16.128 97.292 16.648Q98.064 17.168 99.224 17.184Q100.096 17.192 100.752 16.868Q101.408 16.544 101.824 15.884Q102.24 15.224 102.384 14.232L100.352 14.232L100.352 12.72L104.432 12.72Q104.448 12.848 104.456 13.096Q104.464 13.344 104.464 13.392Q104.464 15.024 103.82 16.292Q103.176 17.56 101.976 18.28Q100.776 19 99.104 19ZM135.856 18.76L135.856 7L137.784 7L137.784 18.76L135.856 18.76ZM3.108 18.56Q4.12 19 5.384 19Q6.272 19 7.084 18.776Q7.896 18.552 8.528 18.104Q9.16 17.656 9.532 16.98Q9.904 16.304 9.904 15.408Q9.904 14.544 9.588 13.984Q9.272 13.424 8.784 13.08Q8.296 12.736 7.768 12.544Q7.24 12.352 6.816 12.24L4.752 11.664Q4.36 11.56 3.98 11.404Q3.6 11.248 3.344 10.98Q3.088 10.712 3.088 10.288Q3.088 9.84 3.388 9.504Q3.688 9.168 4.18 8.988Q4.672 8.808 5.248 8.816Q5.84 8.832 6.364 9.056Q6.888 9.28 7.252 9.708Q7.616 10.136 7.744 10.744L9.816 10.384Q9.56 9.32 8.936 8.568Q8.312 7.816 7.384 7.42Q6.456 7.024 5.272 7.016Q4.104 7.008 3.148 7.384Q2.192 7.76 1.628 8.516Q1.064 9.272 1.064 10.384Q1.064 11.144 1.316 11.66Q1.568 12.176 1.964 12.508Q2.36 12.84 2.804 13.028Q3.248 13.216 3.632 13.328L6.608 14.208Q6.928 14.304 7.172 14.436Q7.416 14.568 7.572 14.728Q7.728 14.888 7.808 15.092Q7.888 15.296 7.888 15.536Q7.888 16.072 7.548 16.44Q7.208 16.808 6.664 17Q6.12 17.192 5.504 17.192Q4.464 17.192 3.668 16.632Q2.872 16.072 2.616 15.048L0.616 15.352Q0.792 16.48 1.444 17.3Q2.096 18.12 3.108 18.56ZM11.8 7.04L11.8 8.808L13.728 8.808L13.728 7.04L11.8 7.04ZM69.888 7.04L69.888 8.808L71.816 8.808L71.816 7.04L69.888 7.04ZM39.352 18.76L39.352 7.24L41.28 7.24L41.28 18.76L39.352 18.76ZM81.128 7.24L81.128 18.76L83.08 18.76L83.08 14.32Q83.08 13.528 83.256 13.02Q83.432 12.512 83.724 12.22Q84.016 11.928 84.376 11.808Q84.736 11.688 85.104 11.688Q85.792 11.688 86.196 11.984Q86.6 12.28 86.804 12.74Q87.008 13.2 87.064 13.696Q87.12 14.192 87.12 14.6L87.12 18.76L89.072 18.76L89.072 13.936Q89.072 13.624 89.02 13.124Q88.968 12.624 88.792 12.064Q88.616 11.504 88.248 11.008Q87.88 10.512 87.256 10.192Q86.632 9.872 85.672 9.872Q84.456 9.872 83.624 10.404Q83.1779 10.6892 82.848 11.0791L82.848 7.24L81.128 7.24ZM79.28 18.76Q78.424 18.92 77.604 18.9Q76.784 18.88 76.136 18.596Q75.488 18.312 75.152 17.696Q74.856 17.136 74.84 16.552Q74.824 15.968 74.824 15.232L74.824 11.632L73.256 11.632L73.256 10.12L74.824 10.12L74.824 7.72L76.744 7.72L76.744 10.12L79.28 10.12L79.28 11.632L76.744 11.632L76.744 15.12Q76.744 15.64 76.756 16.032Q76.768 16.424 76.92 16.672Q77.208 17.152 77.84 17.208Q78.472 17.264 79.28 17.144L79.28 18.76ZM31.96 14.6L31.96 18.76L33.912 18.76L33.912 13.936Q33.912 13.624 33.86 13.124Q33.808 12.624 33.632 12.064Q33.456 11.504 33.088 11.008Q32.72 10.512 32.096 10.192Q31.472 9.872 30.512 9.872Q29.296 9.872 28.464 10.404Q28.0179 10.6892 27.688 11.0791L27.688 10.12L25.968 10.12L25.968 18.76L27.92 18.76L27.92 14.32Q27.92 13.528 28.096 13.02Q28.272 12.512 28.564 12.22Q28.856 11.928 29.216 11.808Q29.576 11.688 29.944 11.688Q30.632 11.688 31.036 11.984Q31.44 12.28 31.644 12.74Q31.848 13.2 31.904 13.696Q31.96 14.192 31.96 14.6ZM49.656 14.6L49.656 18.76L51.608 18.76L51.608 13.936Q51.608 13.624 51.556 13.124Q51.504 12.624 51.328 12.064Q51.152 11.504 50.784 11.008Q50.416 10.512 49.792 10.192Q49.168 9.872 48.208 9.872Q46.992 9.872 46.16 10.404Q45.7139 10.6892 45.384 11.0791L45.384 10.12L43.664 10.12L43.664 18.76L45.616 18.76L45.616 14.32Q45.616 13.528 45.792 13.02Q45.968 12.512 46.26 12.22Q46.552 11.928 46.912 11.808Q47.272 11.688 47.64 11.688Q48.328 11.688 48.732 11.984Q49.136 12.28 49.34 12.74Q49.544 13.2 49.6 13.696Q49.656 14.192 49.656 14.6ZM19.592 19Q18.4 19 17.512 18.4Q16.624 17.8 16.136 16.768Q15.648 15.736 15.648 14.44Q15.648 13.128 16.14 12.1Q16.632 11.072 17.536 10.476Q18.44 9.88 19.664 9.88Q20.896 9.88 21.732 10.476Q21.9024 10.5975 22.056 10.7371L22.056 10.12L23.744 10.12L23.744 19.176Q23.744 19.504 23.716 19.804Q23.688 20.104 23.624 20.392Q23.432 21.232 22.888 21.772Q22.344 22.312 21.54 22.576Q20.736 22.84 19.76 22.84Q19.04 22.84 18.38 22.616Q17.72 22.392 17.192 21.972Q16.664 21.552 16.328 20.96L18.104 20.08Q18.352 20.552 18.804 20.78Q19.256 21.008 19.768 21.008Q20.368 21.008 20.84 20.796Q21.312 20.584 21.572 20.172Q21.832 19.76 21.816 19.144L21.816 18.3243Q21.7648 18.363 21.712 18.4Q20.856 19 19.592 19ZM107.616 18.416Q108.584 19 109.88 19Q111.176 19 112.144 18.42Q113.112 17.84 113.652 16.812Q114.192 15.784 114.192 14.44Q114.192 13.104 113.656 12.076Q113.12 11.048 112.152 10.464Q111.184 9.88 109.88 9.88Q108.608 9.88 107.64 10.456Q106.672 11.032 106.128 12.056Q105.584 13.08 105.584 14.44Q105.584 15.776 106.116 16.804Q106.648 17.832 107.616 18.416ZM119.768 19Q118.472 19 117.504 18.416Q116.536 17.832 116.004 16.804Q115.472 15.776 115.472 14.44Q115.472 13.08 116.016 12.056Q116.56 11.032 117.528 10.456Q118.496 9.88 119.768 9.88Q121.072 9.88 122.04 10.464Q123.008 11.048 123.544 12.076Q124.08 13.104 124.08 14.44Q124.08 15.784 123.54 16.812Q123 17.84 122.032 18.42Q121.064 19 119.768 19ZM127.224 18.4Q128.112 19 129.304 19Q130.568 19 131.424 18.4Q131.477 18.363 131.528 18.3243L131.528 19.144Q131.544 19.76 131.284 20.172Q131.024 20.584 130.552 20.796Q130.08 21.008 129.48 21.008Q128.968 21.008 128.516 20.78Q128.064 20.552 127.816 20.08L126.04 20.96Q126.376 21.552 126.904 21.972Q127.432 22.392 128.092 22.616Q128.752 22.84 129.472 22.84Q130.448 22.84 131.252 22.576Q132.056 22.312 132.6 21.772Q133.144 21.232 133.336 20.392Q133.4 20.104 133.428 19.804Q133.456 19.504 133.456 19.176L133.456 10.12L131.768 10.12L131.768 10.7371Q131.614 10.5975 131.444 10.476Q130.608 9.88 129.376 9.88Q128.152 9.88 127.248 10.476Q126.344 11.072 125.852 12.1Q125.36 13.128 125.36 14.44Q125.36 15.736 125.848 16.768Q126.336 17.8 127.224 18.4ZM141.808 18.432Q142.8 19 144.112 19Q145.36 19 146.396 18.352Q147.432 17.704 147.928 16.536L146.024 15.96Q145.744 16.56 145.228 16.876Q144.712 17.192 144 17.192Q142.896 17.192 142.32 16.472Q141.868 15.9066 141.771 14.976L148.024 14.976Q148.136 13.424 147.68 12.28Q147.224 11.136 146.284 10.508Q145.344 9.88 144 9.88Q142.728 9.88 141.76 10.456Q140.792 11.032 140.248 12.076Q139.704 13.12 139.704 14.536Q139.704 15.848 140.26 16.856Q140.816 17.864 141.808 18.432ZM146.067 13.52Q145.963 12.6763 145.616 12.216Q145.128 11.568 144.08 11.568Q142.896 11.568 142.32 12.3Q141.95 12.7704 141.818 13.52L146.067 13.52ZM58.728 18.76L56.088 10.104L57.976 10.12L59.664 15.664L61.376 10.12L63 10.12L64.704 15.664L66.4 10.12L68.288 10.12L65.648 18.76L64.144 18.76L62.184 12.816L60.232 18.76L58.728 18.76ZM11.8 10.12L11.8 18.76L13.728 18.76L13.728 10.12L11.8 10.12ZM71.816 10.12L69.888 10.12L69.888 18.76L71.816 18.76L71.816 10.12ZM21.836 15.92Q22.056 15.28 22.056 14.44Q22.056 13.592 21.836 12.956Q21.616 12.32 21.152 11.964Q20.688 11.608 19.952 11.608Q19.176 11.608 18.672 11.988Q18.168 12.368 17.928 13.012Q17.688 13.656 17.688 14.44Q17.688 15.232 17.924 15.876Q18.16 16.52 18.648 16.896Q19.136 17.272 19.888 17.272Q20.664 17.272 21.14 16.916Q21.616 16.56 21.836 15.92ZM131.768 14.44Q131.768 15.28 131.548 15.92Q131.328 16.56 130.852 16.916Q130.376 17.272 129.6 17.272Q128.848 17.272 128.36 16.896Q127.872 16.52 127.636 15.876Q127.4 15.232 127.4 14.44Q127.4 13.656 127.64 13.012Q127.88 12.368 128.384 11.988Q128.888 11.608 129.664 11.608Q130.4 11.608 130.864 11.964Q131.328 12.32 131.548 12.956Q131.768 13.592 131.768 14.44ZM111.592 16.424Q111.032 17.192 109.88 17.192Q108.768 17.192 108.196 16.444Q107.624 15.696 107.624 14.44Q107.624 13.624 107.864 13.004Q108.104 12.384 108.604 12.036Q109.104 11.688 109.88 11.688Q111.016 11.688 111.584 12.436Q112.152 13.184 112.152 14.44Q112.152 15.656 111.592 16.424ZM119.768 17.192Q120.92 17.192 121.48 16.424Q122.04 15.656 122.04 14.44Q122.04 13.184 121.472 12.436Q120.904 11.688 119.768 11.688Q118.992 11.688 118.492 12.036Q117.992 12.384 117.752 13.004Q117.512 13.624 117.512 14.44Q117.512 15.696 118.084 16.444Q118.656 17.192 119.768 17.192Z" />
        </g>
        <g id="👑-Icon" transform="translate(0 1)">
          <g id="IconsGoogle">
            <path d="M24 0L24 24L0 24L0 0L24 0Z" id="Vector" fill="none" fill-rule="evenodd" stroke="none" />
            <g id="Google-icon" transform="translate(4 4)">
              <path d="M16 8.17781C16 7.52004 15.9456 7.04004 15.8277 6.54227L8.1633 6.54227L8.1633 9.51112L12.6621 9.51112C12.5715 10.2489 12.0816 11.3601 10.9932 12.1067L10.9779 12.2061L13.4013 14.0459L13.5691 14.0622C15.1111 12.6667 16 10.6134 16 8.17781Z" id="Path" fill="#4285F4" fill-rule="evenodd" stroke="none" />
              <path d="M8.1633 16C10.3673 16 12.2177 15.2889 13.5691 14.0622L10.9932 12.1066C10.3039 12.5777 9.37869 12.9067 8.1633 12.9067C6.00459 12.9067 4.1724 11.5112 3.51928 9.58226L3.42355 9.59023L0.903728 11.5013L0.870775 11.5911C2.21316 14.2044 4.97053 16 8.1633 16Z" id="Path" fill="#34A853" fill-rule="evenodd" stroke="none" />
              <path d="M3.51923 9.58224C3.3469 9.08447 3.24716 8.55109 3.24716 8.00001C3.24716 7.44887 3.3469 6.91555 3.51017 6.41777L3.50561 6.31177L0.954203 4.36994L0.870726 4.40886C0.317464 5.49331 0 6.71112 0 8.00001C0 9.2889 0.317464 10.5066 0.870726 11.5911L3.51923 9.58224Z" id="Path" fill="#FBBC05" fill-rule="evenodd" stroke="none" />
              <path d="M8.1633 3.09332C9.69615 3.09332 10.7301 3.7422 11.3198 4.28447L13.6236 2.08C12.2087 0.791116 10.3673 0 8.1633 0C4.97053 0 2.21316 1.79554 0.870775 4.40887L3.51022 6.41779C4.1724 4.4889 6.00459 3.09332 8.1633 3.09332Z" id="Path" fill="#EB4335" fill-rule="evenodd" stroke="none" />
            </g>
          </g>
        </g>
      </g>
    </g>
  </g>
</svg>