<?xml version="1.0" encoding="utf-8"?>
<svg width="24px" height="24px" viewBox="0 0 24 24" version="1.1" xmlns:xlink="http://www.w3.org/1999/xlink" xmlns="http://www.w3.org/2000/svg">
  <g id="IconsEye">
    <path d="M24 0L24 24L0 24L0 0L24 0Z" id="Vector" fill="none" fill-rule="evenodd" stroke="none" />
    <path d="M19.925 8.34404C19.925 8.34404 10.17 18.062 8.86201 19.375C10.302 19.946 11.78 20 11.987 20C14.946 20 17.439 18.546 19.487 16.156C20.188 15.339 20.801 14.466 21.299 13.594C21.601 13.066 21.785 12.658 21.893 12.406C22.002 12.152 22.004 11.847 21.893 11.594C21.666 11.074 21.239 10.247 20.581 9.28105C20.404 9.02205 19.925 8.34404 19.925 8.34404Z" id="👑-Edit-Color" fill="#D3D5DA" fill-rule="evenodd" stroke="none" />
    <path d="M11.987 4.00005C9.02801 3.99305 6.53501 5.45404 4.48701 7.84404C3.78601 8.66104 3.173 9.53405 2.67499 10.406C2.37299 10.934 2.189 11.342 2.081 11.594C1.973 11.845 1.973 12.155 2.081 12.406C2.189 12.658 2.37299 13.066 2.67499 13.594C3.076 14.297 3.544 15.013 4.081 15.688C4.166 15.795 4.841 16.561 5.425 17.156L4.26801 18.281C3.87801 18.672 3.87801 19.328 4.26801 19.719C4.65901 20.109 5.315 20.109 5.706 19.719L19.706 5.71904C20.096 5.32804 20.096 4.67205 19.706 4.28105C19.51 4.08605 19.243 4.00005 18.987 4.00005C18.731 4.00005 18.464 4.08605 18.268 4.28105L16.987 5.59404C15.334 4.48804 13.69 4.00405 11.987 4.00005ZM11.987 8.00004C12.505 8.00004 13.296 8.13706 14.018 8.56206L12.487 10.094C12.33 10.012 12.031 10 11.987 10C10.882 10 9.98704 10.895 9.98704 12C9.98704 12.044 9.97302 12.347 10.018 12.531C9.82602 12.764 8.51802 14.031 8.51802 14.031C8.17002 13.425 7.99101 12.694 7.98701 12C7.97601 9.79104 9.77801 8.00004 11.987 8.00004Z" id="👑-Edit-Color" fill="#D3D5DA" fill-rule="evenodd" stroke="none" />
  </g>
</svg>