<?xml version="1.0" encoding="utf-8"?>
<svg width="24px" height="24px" viewBox="0 0 24 24" version="1.1" xmlns:xlink="http://www.w3.org/1999/xlink" xmlns="http://www.w3.org/2000/svg">
  <g id="Icon">
    <g id="Face-ID">
      <path d="M24 0L24 24L0 24L0 0L24 0Z" id="Vector" fill="none" fill-rule="evenodd" stroke="none" />
      <path d="M11 3C11 2.44772 11.4477 2 12 2C12.5523 2 13 2.44772 13 3C13 3.55228 12.5523 4 12 4C11.4477 4 11 3.55228 11 3ZM6.34319 4.92888C6.73371 5.3194 6.73371 5.95257 6.34319 6.34309C5.95266 6.73362 5.3195 6.73362 4.92897 6.34309C4.53845 5.95257 4.53845 5.3194 4.92897 4.92888C5.3195 4.53836 5.95266 4.53836 6.34319 4.92888ZM17.6569 6.34324C17.2664 5.95272 17.2664 5.31955 17.6569 4.92903C18.0474 4.53851 18.6806 4.53851 19.0711 4.92903C19.4616 5.31955 19.4616 5.95272 19.0711 6.34324C18.6806 6.73377 18.0474 6.73377 17.6569 6.34324ZM3 11C3.55228 11 4 11.4477 4 12C4 12.5523 3.55228 13 3 13C2.44772 13 2 12.5523 2 12C2 11.4477 2.44772 11 3 11ZM20 12C20 11.4477 20.4477 11 21 11C21.5523 11 22 11.4477 22 12C22 12.5523 21.5523 13 21 13C20.4477 13 20 12.5523 20 12ZM4.92888 19.071C4.53836 18.6805 4.53836 18.0473 4.92888 17.6568C5.3194 17.2663 5.95257 17.2663 6.34309 17.6568C6.73362 18.0473 6.73362 18.6805 6.34309 19.071C5.95257 19.4616 5.3194 19.4616 4.92888 19.071ZM17.6569 17.6569C18.0474 17.2664 18.6806 17.2664 19.0711 17.6569C19.4616 18.0474 19.4616 18.6806 19.0711 19.0711C18.6806 19.4616 18.0474 19.4616 17.6569 19.0711C17.2664 18.6806 17.2664 18.0474 17.6569 17.6569ZM11 21C11 20.4477 11.4477 20 12 20C12.5523 20 13 20.4477 13 21C13 21.5523 12.5523 22 12 22C11.4477 22 11 21.5523 11 21Z" id="👑-Edit-Color" fill="#4A44C6" fill-rule="evenodd" stroke="none" />
      <path d="M16 12C16 14.2091 14.2091 16 12 16C9.79086 16 8 14.2091 8 12C8 9.79086 9.79086 8 12 8C14.2091 8 16 9.79086 16 12Z" id="👑-Edit-Color" fill="#4A44C6" fill-rule="evenodd" stroke="none" />
    </g>
  </g>
</svg>