<?xml version="1.0" encoding="utf-8"?>
<svg width="24px" height="24px" viewBox="0 0 24 24" version="1.1" xmlns:xlink="http://www.w3.org/1999/xlink" xmlns="http://www.w3.org/2000/svg">
  <defs>
    <rect width="24" height="24" id="artboard_1" />
    <clipPath id="clip_1">
      <use xlink:href="#artboard_1" clip-rule="evenodd" />
    </clipPath>
  </defs>
  <g id="IconsLock" clip-path="url(#clip_1)">
    <g id="IconsLock" artboard="0531de75-c5e9-4f31-9f8f-b7b9fa6bdd22">
      <path d="M24 0L24 24L0 24L0 0L24 0Z" id="Vector" fill="none" fill-rule="evenodd" stroke="none" />
      <path d="M7 7C7 4.23858 9.23858 2 12 2C14.7614 2 17 4.23858 17 7L17 11C17 11.5523 16.5523 12 16 12C15.4477 12 15 11.5523 15 11L15 7C15 5.34315 13.6569 4 12 4C10.3431 4 9 5.34315 9 7L9 11C9 11.5523 8.55228 12 8 12C7.44772 12 7 11.5523 7 11L7 7Z" id="👑-Edit-Color" fill="#D3D5DA" fill-rule="evenodd" stroke="none" />
      <path d="M3.11117 12.2288C3.27137 10.0124 5.01376 8.29156 7.2315 8.15059C8.55778 8.06629 10.1795 8 12 8C13.8205 8 15.4422 8.06629 16.7685 8.15059C18.9862 8.29156 20.7286 10.0124 20.8888 12.2288C20.9535 13.1234 21 14.085 21 15C21 15.915 20.9535 16.8766 20.8888 17.7712C20.7286 19.9876 18.9862 21.7084 16.7685 21.8494C15.4422 21.9337 13.8205 22 12 22C10.1795 22 8.55778 21.9337 7.23151 21.8494C5.01376 21.7084 3.27137 19.9876 3.11118 17.7712C3.04652 16.8766 3 15.915 3 15C3 14.085 3.04652 13.1234 3.11117 12.2288ZM14 14C14 14.7403 13.5978 15.3866 13 15.7324L13 17C13 17.5523 12.5523 18 12 18C11.4477 18 11 17.5523 11 17L11 15.7324C10.4022 15.3866 10 14.7403 10 14C10 12.8954 10.8954 12 12 12C13.1046 12 14 12.8954 14 14Z" id="👑-Edit-Color" fill="#121826" fill-rule="evenodd" stroke="none" />
    </g>
  </g>
</svg>