<?xml version="1.0" encoding="utf-8"?>
<svg width="24px" height="24px" viewBox="0 0 24 24" version="1.1" xmlns:xlink="http://www.w3.org/1999/xlink" xmlns="http://www.w3.org/2000/svg">
  <g id="IconsFacebook">
    <path d="M24 0L24 24L0 24L0 0L24 0Z" id="Vector" fill="none" fill-rule="evenodd" stroke="none" />
    <g id="Facebook" transform="translate(2 2)">
      <path d="M20 9.99998C20 4.47715 15.5229 0 10 0C4.47715 0 0 4.47715 0 9.99998C0 14.9913 3.65686 19.1283 8.4375 19.8785L8.4375 12.8906L5.89844 12.8906L5.89844 9.99998L8.4375 9.99998L8.4375 7.79688C8.4375 5.29063 9.93043 3.90625 12.2146 3.90625C13.3087 3.90625 14.4531 4.10157 14.4531 4.10157L14.4531 6.5625L13.1921 6.5625C11.9499 6.5625 11.5625 7.33334 11.5625 8.12416L11.5625 9.99998L14.3359 9.99998L13.8926 12.8906L11.5625 12.8906L11.5625 19.8785C16.3431 19.1283 20 14.9913 20 9.99998Z" id="Path" fill="#1877F2" stroke="none" />
      <path d="M13.8926 12.8906L14.3359 9.99998L11.5625 9.99998L11.5625 8.12414C11.5625 7.33332 11.9499 6.56248 13.1921 6.56248L14.4531 6.56248L14.4531 4.10154C14.4531 4.10154 13.3087 3.90623 12.2146 3.90623C9.93043 3.90623 8.4375 5.2906 8.4375 7.79685L8.4375 9.99998L5.89844 9.99998L5.89844 12.8906L8.4375 12.8906L8.4375 19.8785C8.94662 19.9584 9.46844 20 10 20C10.5316 20 11.0534 19.9584 11.5625 19.8785L11.5625 12.8906L13.8926 12.8906Z" id="Path" fill="#FFFFFF" stroke="none" />
    </g>
  </g>
</svg>