<?xml version="1.0" encoding="utf-8"?>
<svg width="24px" height="24px" viewBox="0 0 24 24" version="1.1" xmlns:xlink="http://www.w3.org/1999/xlink" xmlns="http://www.w3.org/2000/svg">
  <g id="IconsClose">
    <path d="M24 0L24 24L0 24L0 0L24 0Z" id="Vector" fill="none" fill-rule="evenodd" stroke="none" />
    <path d="M15.7071 8.29289C16.0976 8.68342 16.0976 9.31658 15.7071 9.70711L13.4142 12L15.7071 14.2929C16.0976 14.6834 16.0976 15.3166 15.7071 15.7071C15.3166 16.0976 14.6834 16.0976 14.2929 15.7071L12 13.4142L9.70708 15.7071C9.31657 16.0976 8.68337 16.0976 8.29287 15.7071C7.90237 15.3166 7.90237 14.6834 8.29287 14.2929L10.5858 12L8.29288 9.70711C7.90237 9.31658 7.90237 8.68342 8.29288 8.29289C8.68338 7.90237 9.31658 7.90237 9.70708 8.29289L12 10.5858L14.2929 8.29289C14.6834 7.90237 15.3166 7.90237 15.7071 8.29289Z" id="👑-Edit-Color" fill="#121826" fill-rule="evenodd" stroke="none" />
  </g>
</svg>