<?xml version="1.0" encoding="utf-8"?>
<svg width="24px" height="24px" viewBox="0 0 24 24" version="1.1" xmlns:xlink="http://www.w3.org/1999/xlink" xmlns="http://www.w3.org/2000/svg">
  <defs>
    <rect width="24" height="24" id="artboard_1" />
    <clipPath id="clip_1">
      <use xlink:href="#artboard_1" clip-rule="evenodd" />
    </clipPath>
  </defs>
  <g id="IconsChevron-left" clip-path="url(#clip_1)">
    <g id="Chevron-left" artboard="1c74e685-806c-4a6e-ae33-ee1824fddacc">
      <path d="M24 0L24 24L0 24L0 0L24 0Z" id="Vector" fill="none" fill-rule="evenodd" stroke="none" />
      <path d="M10.5858 10.5858C9.84585 11.3257 9.8069 12.5012 10.469 13.287L10.5858 13.4142L14.7052 17.2929C15.0958 17.6834 15.0958 18.3166 14.7052 18.7071C14.3447 19.0676 13.7775 19.0953 13.3852 18.7903L13.291 18.7071L9.17157 14.8284C7.66155 13.3184 7.61121 10.9014 9.02057 9.33095L9.17157 9.17157L13.291 5.29289C13.6815 4.90237 14.3147 4.90237 14.7052 5.29289C15.0657 5.65338 15.0934 6.22061 14.7884 6.6129L14.7052 6.70711L10.5858 10.5858Z" id="Path" fill="#121826" fill-rule="evenodd" stroke="none" />
    </g>
  </g>
</svg>