<?xml version="1.0" encoding="utf-8"?>
<svg width="24px" height="24px" viewBox="0 0 24 24" version="1.1" xmlns:xlink="http://www.w3.org/1999/xlink" xmlns="http://www.w3.org/2000/svg">
  <defs>
    <rect width="24" height="24" id="artboard_1" />
    <clipPath id="clip_1">
      <use xlink:href="#artboard_1" clip-rule="evenodd" />
    </clipPath>
  </defs>
  <g id="IconsGoogle" clip-path="url(#clip_1)">
    <g id="IconsGoogle" artboard="51bac5d8-bb79-4c3c-bc81-623178bbd3b7">
      <path d="M24 0L24 24L0 24L0 0L24 0Z" id="Vector" fill="none" fill-rule="evenodd" stroke="none" />
      <g id="Google-icon" transform="translate(4 4)">
        <path d="M16 8.17781C16 7.52004 15.9456 7.04004 15.8277 6.54227L8.1633 6.54227L8.1633 9.51112L12.6621 9.51112C12.5715 10.2489 12.0816 11.3601 10.9932 12.1067L10.9779 12.2061L13.4013 14.0459L13.5691 14.0622C15.1111 12.6667 16 10.6134 16 8.17781Z" id="Path" fill="#4285F4" stroke="none" />
        <path d="M8.1633 16C10.3673 16 12.2177 15.2889 13.5691 14.0622L10.9932 12.1066C10.3039 12.5777 9.37869 12.9067 8.1633 12.9067C6.00459 12.9067 4.1724 11.5112 3.51928 9.58226L3.42355 9.59023L0.903728 11.5013L0.870775 11.5911C2.21316 14.2044 4.97053 16 8.1633 16Z" id="Path" fill="#34A853" stroke="none" />
        <path d="M3.51923 9.58224C3.3469 9.08447 3.24716 8.55109 3.24716 8.00001C3.24716 7.44887 3.3469 6.91555 3.51017 6.41777L3.50561 6.31177L0.954203 4.36994L0.870726 4.40886C0.317464 5.49331 0 6.71112 0 8.00001C0 9.2889 0.317464 10.5066 0.870726 11.5911L3.51923 9.58224Z" id="Path" fill="#FBBC05" stroke="none" />
        <path d="M8.1633 3.09332C9.69615 3.09332 10.7301 3.7422 11.3198 4.28447L13.6236 2.08C12.2087 0.791116 10.3673 0 8.1633 0C4.97053 0 2.21316 1.79554 0.870775 4.40887L3.51022 6.41779C4.1724 4.4889 6.00459 3.09332 8.1633 3.09332Z" id="Path" fill="#EB4335" stroke="none" />
      </g>
    </g>
  </g>
</svg>