<?xml version="1.0" standalone="no"?><!DOCTYPE svg PUBLIC "-//W3C//DTD SVG 1.1//EN" "http://www.w3.org/Graphics/SVG/1.1/DTD/svg11.dtd"><svg t="1685343189751" class="icon" viewBox="0 0 1024 1024" version="1.1" xmlns="http://www.w3.org/2000/svg" p-id="1802" xmlns:xlink="http://www.w3.org/1999/xlink" width="48" height="48"><path d="M724.89984 602.65472c12.04224 9.56928 31.30368 4.7872 40.9344-9.5744 4.8128-7.18336 4.8128-14.3616 4.8128-21.53984-2.41152-7.17824-7.22432-14.3616-12.04224-19.14368-16.85504-9.5744-33.71008-21.53984-52.97152-28.71808 24.07936-23.936 43.3408-50.25792 55.37792-81.37728 14.4384-33.50016 21.67296-69.4016 21.67296-107.69408 0-148.3776-120.3968-268.04736-269.68576-268.04736S245.71904 188.61568 245.71904 336.99328c0 71.79776 28.89728 138.81344 79.4624 189.07648-156.50816 71.79264-257.6384 227.35872-257.6384 399.67744 0 16.75264 12.03712 28.71808 28.89216 28.71808s28.89216-11.96544 28.89216-28.71808c0-160.34816 101.12512-303.94368 250.4192-358.9888 84.28032 50.24768 192.63488 47.86688 274.49856 0 26.496 9.56416 52.98688 21.53472 74.65472 35.89632z m-211.8912-57.44128c-115.57888 0-209.48992-93.34272-209.48992-208.22016 0-114.87232 93.90592-208.20992 209.48992-208.20992 115.584 0 209.48992 93.3376 209.48992 208.20992 0 28.71808-4.8128 57.4464-16.85504 83.7632-9.63072 23.936-26.49088 45.47584-45.75744 64.61952-38.51776 38.2976-91.49952 59.83744-146.87744 59.83744z m411.71968 221.95712h-95.1296v-95.13472a31.70816 31.70816 0 1 0-63.41632 0v95.13472h-95.13472a31.70816 31.70816 0 0 0 0 63.42144h95.13472v95.1296a31.71328 31.71328 0 1 0 63.41632 0v-95.1296h95.1296a31.70816 31.70816 0 1 0 0-63.42144z" fill="#333333" p-id="1803"></path></svg>