<?xml version="1.0" standalone="no"?><!DOCTYPE svg PUBLIC "-//W3C//DTD SVG 1.1//EN" "http://www.w3.org/Graphics/SVG/1.1/DTD/svg11.dtd"><svg t="1678973409815" class="icon" viewBox="0 0 1024 1024" version="1.1" xmlns="http://www.w3.org/2000/svg" p-id="2736" xmlns:xlink="http://www.w3.org/1999/xlink" width="200" height="200"><path d="M512 1024C230.4 1024 0 793.6 0 512S230.4 0 512 0s512 230.4 512 512-230.4 512-512 512z m0-981.333333C253.866667 42.666667 42.666667 253.866667 42.666667 512s211.2 469.333333 469.333333 469.333333 469.333333-211.2 469.333333-469.333333S770.133333 42.666667 512 42.666667z" p-id="2737" fill="#2c2c2c"></path><path d="M765.866667 533.333333h-512c-10.666667 0-19.2-8.533333-19.2-19.2V512c0-10.666667 8.533333-19.2 19.2-19.2H768c10.666667 0 19.2 8.533333 19.2 19.2 2.133333 10.666667-8.533333 21.333333-21.333333 21.333333z" p-id="2738" fill="#2c2c2c"></path></svg>