<?xml version="1.0" encoding="utf-8"?>
<svg width="327px" height="98px" viewBox="0 0 327 98" version="1.1" xmlns:xlink="http://www.w3.org/1999/xlink" xmlns="http://www.w3.org/2000/svg">
  <g id="Password">
    <g id="InputsText-FieldRest">
      <path d="M15.999 34L311.001 34Q311.394 34 311.786 34.0193Q312.178 34.0385 312.569 34.077Q312.96 34.1155 313.349 34.1732Q313.737 34.2308 314.122 34.3074Q314.507 34.384 314.888 34.4795Q315.269 34.5749 315.645 34.6889Q316.021 34.8029 316.391 34.9352Q316.761 35.0675 317.124 35.2178Q317.486 35.3681 317.841 35.5361Q318.196 35.704 318.543 35.8891Q318.889 36.0743 319.226 36.2762Q319.563 36.4781 319.89 36.6963Q320.216 36.9145 320.532 37.1485Q320.847 37.3824 321.151 37.6316Q321.454 37.8808 321.745 38.1445Q322.036 38.4083 322.314 38.686Q322.592 38.9637 322.855 39.2547Q323.119 39.5457 323.368 39.8493Q323.618 40.1529 323.852 40.4684Q324.085 40.7839 324.304 41.1104Q324.522 41.437 324.724 41.7739Q324.926 42.1107 325.111 42.4571Q325.296 42.8035 325.464 43.1585Q325.632 43.5136 325.782 43.8764Q325.932 44.2393 326.065 44.6091Q326.197 44.9789 326.311 45.3547Q326.425 45.7306 326.52 46.1116Q326.616 46.4925 326.693 46.8777Q326.769 47.263 326.827 47.6515Q326.884 48.04 326.923 48.4308Q326.961 48.8217 326.981 49.214Q327 49.6062 327 49.999L327 82.001Q327 82.3938 326.981 82.786Q326.961 83.1783 326.923 83.5692Q326.884 83.96 326.827 84.3485Q326.769 84.737 326.693 85.1222Q326.616 85.5074 326.52 85.8884Q326.425 86.2694 326.311 86.6453Q326.197 87.0211 326.065 87.3909Q325.932 87.7607 325.782 88.1235Q325.632 88.4864 325.464 88.8414Q325.296 89.1965 325.111 89.5429Q324.926 89.8893 324.724 90.2261Q324.522 90.563 324.304 90.8896Q324.085 91.2161 323.852 91.5316Q323.618 91.847 323.368 92.1507Q323.119 92.4543 322.855 92.7453Q322.592 93.0363 322.314 93.314Q322.036 93.5917 321.745 93.8555Q321.454 94.1192 321.151 94.3684Q320.847 94.6175 320.532 94.8515Q320.216 95.0855 319.89 95.3037Q319.563 95.5219 319.226 95.7238Q318.889 95.9257 318.543 96.1109Q318.196 96.296 317.841 96.4639Q317.486 96.6318 317.124 96.7821Q316.761 96.9324 316.391 97.0648Q316.021 97.1971 315.645 97.3111Q315.269 97.4251 314.888 97.5205Q314.507 97.616 314.122 97.6926Q313.737 97.7692 313.349 97.8268Q312.96 97.8845 312.569 97.923Q312.178 97.9615 311.786 97.9807Q311.394 98 311.001 98L15.999 98Q15.6062 98 15.214 97.9807Q14.8217 97.9614 14.4308 97.923Q14.04 97.8845 13.6515 97.8268Q13.263 97.7692 12.8777 97.6926Q12.4925 97.6159 12.1116 97.5205Q11.7306 97.4251 11.3547 97.3111Q10.9789 97.1971 10.6091 97.0648Q10.2393 96.9324 9.87645 96.7821Q9.51359 96.6318 9.15855 96.4639Q8.8035 96.296 8.45712 96.1108Q8.11075 95.9257 7.77387 95.7238Q7.43699 95.5219 7.11043 95.3037Q6.78387 95.0855 6.46841 94.8515Q6.15294 94.6175 5.84934 94.3684Q5.54574 94.1192 5.25473 93.8555Q4.96372 93.5917 4.686 93.314Q4.40828 93.0363 4.14452 92.7453Q3.88077 92.4543 3.63161 92.1507Q3.38245 91.847 3.14848 91.5316Q2.91452 91.2161 2.69632 90.8895Q2.47812 90.563 2.2762 90.2261Q2.07428 89.8892 1.88914 89.5429Q1.704 89.1965 1.53607 88.8414Q1.36815 88.4864 1.21785 88.1235Q1.06755 87.7607 0.935236 87.3909Q0.802922 87.0211 0.688911 86.6453Q0.574901 86.2694 0.47947 85.8884Q0.384039 85.5075 0.307416 85.1222Q0.230794 84.737 0.173165 84.3485Q0.115536 83.96 0.0770395 83.5692Q0.038543 83.1783 0.0192715 82.786Q0 82.3938 0 82.001L0 49.999Q0 49.6062 0.0192715 49.214Q0.038543 48.8217 0.0770395 48.4308Q0.115536 48.04 0.173165 47.6515Q0.230794 47.263 0.307416 46.8778Q0.384039 46.4925 0.47947 46.1116Q0.574901 45.7306 0.688911 45.3547Q0.802922 44.9789 0.935236 44.6091Q1.06755 44.2393 1.21785 43.8764Q1.36815 43.5136 1.53607 43.1586Q1.704 42.8035 1.88914 42.4571Q2.07428 42.1107 2.2762 41.7739Q2.47812 41.437 2.69632 41.1104Q2.91452 40.7839 3.14848 40.4684Q3.38245 40.1529 3.63161 39.8493Q3.88077 39.5457 4.14452 39.2547Q4.40828 38.9637 4.686 38.686Q4.96372 38.4083 5.25473 38.1445Q5.54574 37.8808 5.84934 37.6316Q6.15294 37.3824 6.46841 37.1485Q6.78387 36.9145 7.11043 36.6963Q7.43699 36.4781 7.77387 36.2762Q8.11075 36.0743 8.45712 35.8891Q8.8035 35.704 9.15855 35.5361Q9.51359 35.3681 9.87645 35.2178Q10.2393 35.0675 10.6091 34.9352Q10.9789 34.8029 11.3547 34.6889Q11.7306 34.5749 12.1116 34.4795Q12.4925 34.384 12.8777 34.3074Q13.263 34.2308 13.6515 34.1732Q14.04 34.1155 14.4308 34.077Q14.8217 34.0385 15.214 34.0193Q15.6062 34 15.999 34Z" id="Line" fill="#F4F4F6" fill-rule="evenodd" stroke="none" />
      <g id="Content" transform="translate(18 54)">
        <g id="Icon-R" transform="translate(267 0)">
          <g id="IconsEye">
            <path d="M24 0L24 24L0 24L0 0L24 0Z" id="Vector" fill="none" fill-rule="evenodd" stroke="none" />
            <path d="M19.925 8.34404C19.925 8.34404 10.17 18.062 8.86201 19.375C10.302 19.946 11.78 20 11.987 20C14.946 20 17.439 18.546 19.487 16.156C20.188 15.339 20.801 14.466 21.299 13.594C21.601 13.066 21.785 12.658 21.893 12.406C22.002 12.152 22.004 11.847 21.893 11.594C21.666 11.074 21.239 10.247 20.581 9.28105C20.404 9.02205 19.925 8.34404 19.925 8.34404Z" id="👑-Edit-Color" fill="#D3D5DA" fill-rule="evenodd" stroke="none" />
            <path d="M11.987 4.00005C9.02801 3.99305 6.53501 5.45404 4.48701 7.84404C3.78601 8.66104 3.173 9.53405 2.67499 10.406C2.37299 10.934 2.189 11.342 2.081 11.594C1.973 11.845 1.973 12.155 2.081 12.406C2.189 12.658 2.37299 13.066 2.67499 13.594C3.076 14.297 3.544 15.013 4.081 15.688C4.166 15.795 4.841 16.561 5.425 17.156L4.26801 18.281C3.87801 18.672 3.87801 19.328 4.26801 19.719C4.65901 20.109 5.315 20.109 5.706 19.719L19.706 5.71904C20.096 5.32804 20.096 4.67205 19.706 4.28105C19.51 4.08605 19.243 4.00005 18.987 4.00005C18.731 4.00005 18.464 4.08605 18.268 4.28105L16.987 5.59404C15.334 4.48804 13.69 4.00405 11.987 4.00005ZM11.987 8.00004C12.505 8.00004 13.296 8.13706 14.018 8.56206L12.487 10.094C12.33 10.012 12.031 10 11.987 10C10.882 10 9.98704 10.895 9.98704 12C9.98704 12.044 9.97302 12.347 10.018 12.531C9.82602 12.764 8.51802 14.031 8.51802 14.031C8.17002 13.425 7.99101 12.694 7.98701 12C7.97601 9.79104 9.77801 8.00004 11.987 8.00004Z" id="👑-Edit-Color" fill="#D3D5DA" fill-rule="evenodd" stroke="none" />
          </g>
        </g>
        <g id="Enter-your-password" fill="#6C727F" transform="translate(40 0)">
          <path d="M0.98 17.04L0.98 6.96L7.35 6.96L7.35 8.143L2.226 8.143L2.226 11.3L6.51 11.3L6.51 12.483L2.226 12.483L2.226 15.857L7.35 15.857L7.35 17.04L0.98 17.04ZM132.986 16.1811L132.986 17.04L134.099 17.04L134.099 6.96L132.846 6.96L132.846 10.1634Q132.648 9.95556 132.412 9.788Q131.684 9.27 130.613 9.27Q129.563 9.27 128.807 9.7915Q128.051 10.313 127.642 11.216Q127.232 12.119 127.232 13.253Q127.232 14.387 127.642 15.29Q128.051 16.193 128.807 16.7215Q129.563 17.25 130.62 17.25Q131.684 17.25 132.412 16.7215Q132.733 16.4881 132.986 16.1811ZM132.986 13.253Q132.986 12.413 132.752 11.7725Q132.517 11.132 132.034 10.7715Q131.551 10.411 130.809 10.411Q130.039 10.411 129.539 10.789Q129.038 11.167 128.797 11.811Q128.555 12.455 128.555 13.253Q128.555 14.058 128.8 14.7055Q129.045 15.353 129.539 15.731Q130.032 16.109 130.774 16.109Q131.537 16.109 132.027 15.7415Q132.517 15.374 132.752 14.7265Q132.986 14.079 132.986 13.253ZM20.3875 17.1485Q21.042 17.173 21.714 17.04L21.714 15.969Q20.937 16.088 20.3875 16.011Q19.838 15.934 19.586 15.486Q19.453 15.248 19.4425 14.919Q19.432 14.59 19.432 14.128L19.432 10.509L21.714 10.509L21.714 9.48L19.432 9.48L19.432 7.38L18.186 7.38L18.186 9.48L16.653 9.48L16.653 10.509L18.186 10.509L18.186 14.184Q18.186 14.765 18.2035 15.2235Q18.221 15.682 18.445 16.13Q18.711 16.641 19.222 16.8825Q19.733 17.124 20.3875 17.1485ZM26.53 17.25Q25.417 17.25 24.5875 16.7565Q23.758 16.263 23.296 15.3775Q22.834 14.492 22.834 13.309Q22.834 12.07 23.289 11.1635Q23.744 10.257 24.5595 9.7635Q25.375 9.27 26.474 9.27Q27.615 9.27 28.4165 9.795Q29.218 10.32 29.6205 11.293Q30.023 12.266 29.967 13.61L24.168 13.61Q24.2383 14.6962 24.759 15.332Q25.361 16.067 26.474 16.067Q27.223 16.067 27.776 15.724Q28.329 15.381 28.644 14.737L29.841 15.15Q29.4 16.151 28.5145 16.7005Q27.629 17.25 26.53 17.25ZM48.3595 16.739Q49.175 17.25 50.302 17.25Q51.429 17.25 52.248 16.7425Q53.067 16.235 53.508 15.3355Q53.949 14.436 53.949 13.253Q53.949 12.084 53.5115 11.1845Q53.074 10.285 52.255 9.7775Q51.436 9.27 50.302 9.27Q49.196 9.27 48.377 9.7705Q47.558 10.271 47.11 11.167Q46.662 12.063 46.662 13.253Q46.662 14.422 47.103 15.325Q47.544 16.228 48.3595 16.739ZM75.453 17.25Q74.389 17.25 73.661 16.7215Q73.4255 16.5505 73.227 16.34L73.227 20.4L71.974 20.4L71.974 9.48L73.087 9.48L73.087 10.3218Q73.3408 10.0172 73.6645 9.788Q74.396 9.27 75.46 9.27Q76.51 9.27 77.2695 9.7915Q78.029 10.313 78.435 11.216Q78.841 12.119 78.841 13.253Q78.841 14.387 78.435 15.29Q78.029 16.193 77.2695 16.7215Q76.51 17.25 75.453 17.25ZM81.1125 16.9385Q81.683 17.25 82.53 17.25Q83.629 17.25 84.3955 16.781Q84.9523 16.4403 85.33 15.8631L85.33 17.04L86.436 17.04L86.436 12.364Q86.436 11.916 86.394 11.5065Q86.352 11.097 86.191 10.747Q85.869 10.005 85.1305 9.6375Q84.392 9.27 83.363 9.27Q82.082 9.27 81.298 9.837Q80.514 10.404 80.241 11.398L81.424 11.755Q81.634 11.055 82.1485 10.7435Q82.663 10.432 83.349 10.432Q84.385 10.432 84.8085 10.915Q85.1896 11.3497 85.2108 12.2095Q84.8126 12.2644 84.378 12.322Q83.692 12.413 83.0235 12.5215Q82.355 12.63 81.816 12.777Q81.242 12.945 80.829 13.2355Q80.416 13.526 80.1885 13.9635Q79.961 14.401 79.961 14.996Q79.961 15.605 80.2515 16.116Q80.542 16.627 81.1125 16.9385ZM91.112 17.243Q89.761 17.243 88.8965 16.6515Q88.032 16.06 87.836 14.996L89.11 14.793Q89.264 15.409 89.817 15.7695Q90.37 16.13 91.189 16.13Q91.966 16.13 92.407 15.808Q92.848 15.486 92.848 14.933Q92.848 14.611 92.701 14.4115Q92.554 14.212 92.0955 14.037Q91.637 13.862 90.713 13.617Q89.712 13.351 89.138 13.064Q88.564 12.777 88.319 12.399Q88.074 12.021 88.074 11.482Q88.074 10.817 88.438 10.3165Q88.802 9.816 89.4565 9.543Q90.111 9.27 90.979 9.27Q91.84 9.27 92.519 9.543Q93.198 9.816 93.6145 10.3165Q94.031 10.817 94.108 11.482L92.834 11.713Q92.743 11.104 92.2495 10.754Q91.756 10.404 90.979 10.383Q90.244 10.355 89.7855 10.642Q89.327 10.929 89.327 11.419Q89.327 11.692 89.4985 11.888Q89.67 12.084 90.1355 12.259Q90.601 12.434 91.49 12.658Q92.491 12.91 93.0685 13.2075Q93.646 13.505 93.891 13.9075Q94.136 14.31 94.136 14.898Q94.136 15.99 93.331 16.6165Q92.526 17.243 91.112 17.243ZM96.3235 16.6515Q97.188 17.243 98.539 17.243Q99.953 17.243 100.758 16.6165Q101.563 15.99 101.563 14.898Q101.563 14.31 101.318 13.9075Q101.073 13.505 100.496 13.2075Q99.918 12.91 98.917 12.658Q98.028 12.434 97.5625 12.259Q97.097 12.084 96.9255 11.888Q96.754 11.692 96.754 11.419Q96.754 10.929 97.2125 10.642Q97.671 10.355 98.406 10.383Q99.183 10.404 99.6765 10.754Q100.17 11.104 100.261 11.713L101.535 11.482Q101.458 10.817 101.042 10.3165Q100.625 9.816 99.946 9.543Q99.267 9.27 98.406 9.27Q97.538 9.27 96.8835 9.543Q96.229 9.816 95.865 10.3165Q95.501 10.817 95.501 11.482Q95.501 12.021 95.746 12.399Q95.991 12.777 96.565 13.064Q97.139 13.351 98.14 13.617Q99.064 13.862 99.5225 14.037Q99.981 14.212 100.128 14.4115Q100.275 14.611 100.275 14.933Q100.275 15.486 99.834 15.808Q99.393 16.13 98.616 16.13Q97.797 16.13 97.244 15.7695Q96.691 15.409 96.537 14.793L95.263 14.996Q95.459 16.06 96.3235 16.6515ZM115.294 16.739Q116.109 17.25 117.236 17.25Q118.363 17.25 119.182 16.7425Q120.001 16.235 120.442 15.3355Q120.883 14.436 120.883 13.253Q120.883 12.084 120.446 11.1845Q120.008 10.285 119.189 9.7775Q118.37 9.27 117.236 9.27Q116.13 9.27 115.311 9.7705Q114.492 10.271 114.044 11.167Q113.596 12.063 113.596 13.253Q113.596 14.422 114.037 15.325Q114.478 16.228 115.294 16.739ZM14.413 17.04L14.413 13.253Q14.413 12.714 14.3185 12.217Q14.224 11.72 13.9895 11.3245Q13.755 10.929 13.3595 10.698Q12.964 10.467 12.362 10.467Q11.893 10.467 11.5115 10.6245Q11.13 10.782 10.857 11.104Q10.584 11.426 10.4335 11.9125Q10.283 12.399 10.283 13.057L10.283 17.04L9.023 17.04L9.023 9.48L10.143 9.48L10.143 10.4553Q10.4827 9.99658 10.9725 9.7075Q11.69 9.284 12.663 9.284Q13.398 9.284 13.916 9.515Q14.434 9.746 14.777 10.1275Q15.12 10.509 15.316 10.9815Q15.512 11.454 15.5925 11.9405Q15.673 12.427 15.673 12.861L15.673 17.04L14.413 17.04ZM31.521 9.48L31.521 17.04L32.774 17.04L32.774 13.246Q32.774 12.798 32.851 12.3675Q32.928 11.937 33.1275 11.566Q33.327 11.195 33.691 10.936Q34.09 10.642 34.559 10.593Q35.028 10.544 35.42 10.649L35.42 9.48Q35.084 9.403 34.699 9.4275Q34.314 9.452 33.943 9.578Q33.572 9.704 33.278 9.942Q33.012 10.131 32.7985 10.425Q32.7092 10.548 32.634 10.6807L32.634 9.48L31.521 9.48ZM63.952 9.48L63.952 17.04L65.205 17.04L65.205 13.246Q65.205 12.798 65.282 12.3675Q65.359 11.937 65.5585 11.566Q65.758 11.195 66.122 10.936Q66.521 10.642 66.99 10.593Q67.459 10.544 67.851 10.649L67.851 9.48Q67.515 9.403 67.13 9.4275Q66.745 9.452 66.374 9.578Q66.003 9.704 65.709 9.942Q65.443 10.131 65.2295 10.425Q65.1402 10.548 65.065 10.6807L65.065 9.48L63.952 9.48ZM122.423 17.04L122.423 9.48L123.536 9.48L123.536 10.6807Q123.611 10.548 123.701 10.425Q123.914 10.131 124.18 9.942Q124.474 9.704 124.845 9.578Q125.216 9.452 125.601 9.4275Q125.986 9.403 126.322 9.48L126.322 10.649Q125.93 10.544 125.461 10.593Q124.992 10.642 124.593 10.936Q124.229 11.195 124.03 11.566Q123.83 11.937 123.753 12.3675Q123.676 12.798 123.676 13.246L123.676 17.04L122.423 17.04ZM104.72 17.04L102.41 9.473L103.649 9.48L105.336 15.01L107.037 9.48L108.136 9.48L109.83 15.01L111.524 9.48L112.756 9.48L110.446 17.04L109.41 17.04L107.583 11.293L105.756 17.04L104.72 17.04ZM40.6 20.4L41.8457 17.0144L38.78 9.48L40.089 9.48L42.4478 15.428L44.66 9.48L45.927 9.48L41.811 20.4L40.6 20.4ZM58.359 17.236Q57.631 17.236 57.1095 17.005Q56.588 16.774 56.245 16.389Q55.902 16.004 55.706 15.535Q55.51 15.066 55.4295 14.576Q55.349 14.086 55.349 13.659L55.349 9.48L56.609 9.48L56.609 13.267Q56.609 13.799 56.707 14.296Q56.805 14.793 57.0395 15.192Q57.274 15.591 57.6695 15.822Q58.065 16.053 58.66 16.053Q59.129 16.053 59.514 15.892Q59.899 15.731 60.172 15.4125Q60.445 15.094 60.592 14.604Q60.739 14.114 60.739 13.463L60.739 9.48L61.992 9.48L61.992 17.04L60.879 17.04L60.879 16.0631Q60.5393 16.5234 60.0495 16.8125Q59.332 17.236 58.359 17.236ZM28.14 11.0795Q28.5716 11.6245 28.6751 12.609L24.1944 12.609Q24.3071 11.689 24.759 11.132Q25.361 10.39 26.516 10.39Q27.594 10.39 28.14 11.0795ZM73.325 11.7725Q73.087 12.413 73.087 13.253Q73.087 14.079 73.3215 14.7265Q73.556 15.374 74.046 15.7415Q74.536 16.109 75.299 16.109Q76.048 16.109 76.538 15.731Q77.028 15.353 77.273 14.7055Q77.518 14.058 77.518 13.253Q77.518 12.455 77.2765 11.811Q77.035 11.167 76.5345 10.789Q76.034 10.411 75.264 10.411Q74.529 10.411 74.046 10.7715Q73.563 11.132 73.325 11.7725ZM52.052 15.283Q51.478 16.067 50.302 16.067Q49.161 16.067 48.573 15.297Q47.985 14.527 47.985 13.253Q47.985 12.427 48.237 11.797Q48.489 11.167 49 10.81Q49.511 10.453 50.302 10.453Q51.464 10.453 52.045 11.2125Q52.626 11.972 52.626 13.253Q52.626 14.499 52.052 15.283ZM118.986 15.283Q118.412 16.067 117.236 16.067Q116.095 16.067 115.507 15.297Q114.919 14.527 114.919 13.253Q114.919 12.427 115.171 11.797Q115.423 11.167 115.934 10.81Q116.445 10.453 117.236 10.453Q118.398 10.453 118.979 11.2125Q119.56 11.972 119.56 13.253Q119.56 14.499 118.986 15.283ZM83.8845 15.9655Q83.391 16.207 82.719 16.207Q82.18 16.207 81.8475 16.032Q81.515 15.857 81.3575 15.577Q81.2 15.297 81.2 14.989Q81.2 14.632 81.3645 14.3905Q81.529 14.149 81.7985 13.995Q82.068 13.841 82.376 13.743Q82.796 13.624 83.321 13.5365Q83.846 13.449 84.434 13.372Q84.8101 13.3228 85.1949 13.2706Q85.1923 13.4467 85.1865 13.6835Q85.176 14.114 85.071 14.464Q84.98 14.933 84.679 15.3285Q84.378 15.724 83.8845 15.9655Z" />
        </g>
        <g id="Icon-L">
          <g id="IconsLock">
            <path d="M24 0L24 24L0 24L0 0L24 0Z" id="Vector" fill="none" fill-rule="evenodd" stroke="none" />
            <path d="M7 7C7 4.23858 9.23858 2 12 2C14.7614 2 17 4.23858 17 7L17 11C17 11.5523 16.5523 12 16 12C15.4477 12 15 11.5523 15 11L15 7C15 5.34315 13.6569 4 12 4C10.3431 4 9 5.34315 9 7L9 11C9 11.5523 8.55228 12 8 12C7.44772 12 7 11.5523 7 11L7 7Z" id="👑-Edit-Color" fill="#E5E6EB" fill-rule="evenodd" stroke="none" />
            <path d="M3.11117 12.2288C3.27137 10.0124 5.01376 8.29156 7.2315 8.15059C8.55778 8.06629 10.1795 8 12 8C13.8205 8 15.4422 8.06629 16.7685 8.15059C18.9862 8.29156 20.7286 10.0124 20.8888 12.2288C20.9535 13.1234 21 14.085 21 15C21 15.915 20.9535 16.8766 20.8888 17.7712C20.7286 19.9876 18.9862 21.7084 16.7685 21.8494C15.4422 21.9337 13.8205 22 12 22C10.1795 22 8.55778 21.9337 7.23151 21.8494C5.01376 21.7084 3.27137 19.9876 3.11118 17.7712C3.04652 16.8766 3 15.915 3 15C3 14.085 3.04652 13.1234 3.11117 12.2288ZM14 14C14 14.7403 13.5978 15.3866 13 15.7324L13 17C13 17.5523 12.5523 18 12 18C11.4477 18 11 17.5523 11 17L11 15.7324C10.4022 15.3866 10 14.7403 10 14C10 12.8954 10.8954 12 12 12C13.1046 12 14 12.8954 14 14Z" id="👑-Edit-Color" fill="#6C727F" fill-rule="evenodd" stroke="none" />
          </g>
        </g>
      </g>
      <g id="Password" fill="#121826">
        <path d="M0.98 6.96L0.98 17.04L2.226 17.04L2.226 13.316L4.963 13.316Q5.11 13.316 5.313 13.302Q5.516 13.288 5.705 13.26Q6.517 13.134 7.0735 12.6965Q7.63 12.259 7.9135 11.5975Q8.197 10.936 8.197 10.138Q8.197 9.333 7.917 8.6715Q7.637 8.01 7.0805 7.576Q6.524 7.142 5.705 7.016Q5.516 6.981 5.313 6.9705Q5.11 6.96 4.963 6.96L0.98 6.96ZM62.202 16.1811L62.202 17.04L63.315 17.04L63.315 6.96L62.062 6.96L62.062 10.1634Q61.8635 9.95557 61.628 9.788Q60.9 9.27 59.829 9.27Q58.779 9.27 58.023 9.7915Q57.267 10.313 56.8575 11.216Q56.448 12.119 56.448 13.253Q56.448 14.387 56.8575 15.29Q57.267 16.193 58.023 16.7215Q58.779 17.25 59.836 17.25Q60.9 17.25 61.628 16.7215Q61.9495 16.4881 62.202 16.1811ZM62.202 13.253Q62.202 12.413 61.9675 11.7725Q61.733 11.132 61.25 10.7715Q60.767 10.411 60.025 10.411Q59.255 10.411 58.7545 10.789Q58.254 11.167 58.0125 11.811Q57.771 12.455 57.771 13.253Q57.771 14.058 58.016 14.7055Q58.261 15.353 58.7545 15.731Q59.248 16.109 59.99 16.109Q60.753 16.109 61.243 15.7415Q61.733 15.374 61.9675 14.7265Q62.202 14.079 62.202 13.253ZM4.921 12.133L2.226 12.133L2.226 8.143L4.921 8.143Q5.054 8.143 5.2255 8.1535Q5.397 8.164 5.551 8.206Q6.034 8.311 6.3385 8.612Q6.643 8.913 6.783 9.3155Q6.923 9.718 6.923 10.138Q6.923 10.558 6.783 10.9605Q6.643 11.363 6.3385 11.6605Q6.034 11.958 5.551 12.07Q5.397 12.105 5.2255 12.119Q5.054 12.133 4.921 12.133ZM10.3285 16.9385Q10.899 17.25 11.746 17.25Q12.845 17.25 13.6115 16.781Q14.1683 16.4403 14.546 15.8631L14.546 17.04L15.652 17.04L15.652 12.364Q15.652 11.916 15.61 11.5065Q15.568 11.097 15.407 10.747Q15.085 10.005 14.3465 9.6375Q13.608 9.27 12.579 9.27Q11.298 9.27 10.514 9.837Q9.73 10.404 9.457 11.398L10.64 11.755Q10.85 11.055 11.3645 10.7435Q11.879 10.432 12.565 10.432Q13.601 10.432 14.0245 10.915Q14.4056 11.3497 14.4268 12.2095Q14.0287 12.2643 13.594 12.322Q12.908 12.413 12.2395 12.5215Q11.571 12.63 11.032 12.777Q10.458 12.945 10.045 13.2355Q9.632 13.526 9.4045 13.9635Q9.177 14.401 9.177 14.996Q9.177 15.605 9.4675 16.116Q9.758 16.627 10.3285 16.9385ZM20.328 17.243Q18.977 17.243 18.1125 16.6515Q17.248 16.06 17.052 14.996L18.326 14.793Q18.48 15.409 19.033 15.7695Q19.586 16.13 20.405 16.13Q21.182 16.13 21.623 15.808Q22.064 15.486 22.064 14.933Q22.064 14.611 21.917 14.4115Q21.77 14.212 21.3115 14.037Q20.853 13.862 19.929 13.617Q18.928 13.351 18.354 13.064Q17.78 12.777 17.535 12.399Q17.29 12.021 17.29 11.482Q17.29 10.817 17.654 10.3165Q18.018 9.816 18.6725 9.543Q19.327 9.27 20.195 9.27Q21.056 9.27 21.735 9.543Q22.414 9.816 22.8305 10.3165Q23.247 10.817 23.324 11.482L22.05 11.713Q21.959 11.104 21.4655 10.754Q20.972 10.404 20.195 10.383Q19.46 10.355 19.0015 10.642Q18.543 10.929 18.543 11.419Q18.543 11.692 18.7145 11.888Q18.886 12.084 19.3515 12.259Q19.817 12.434 20.706 12.658Q21.707 12.91 22.2845 13.2075Q22.862 13.505 23.107 13.9075Q23.352 14.31 23.352 14.898Q23.352 15.99 22.547 16.6165Q21.742 17.243 20.328 17.243ZM25.5395 16.6515Q26.404 17.243 27.755 17.243Q29.169 17.243 29.974 16.6165Q30.779 15.99 30.779 14.898Q30.779 14.31 30.534 13.9075Q30.289 13.505 29.7115 13.2075Q29.134 12.91 28.133 12.658Q27.244 12.434 26.7785 12.259Q26.313 12.084 26.1415 11.888Q25.97 11.692 25.97 11.419Q25.97 10.929 26.4285 10.642Q26.887 10.355 27.622 10.383Q28.399 10.404 28.8925 10.754Q29.386 11.104 29.477 11.713L30.751 11.482Q30.674 10.817 30.2575 10.3165Q29.841 9.816 29.162 9.543Q28.483 9.27 27.622 9.27Q26.754 9.27 26.0995 9.543Q25.445 9.816 25.081 10.3165Q24.717 10.817 24.717 11.482Q24.717 12.021 24.962 12.399Q25.207 12.777 25.781 13.064Q26.355 13.351 27.356 13.617Q28.28 13.862 28.7385 14.037Q29.197 14.212 29.344 14.4115Q29.491 14.611 29.491 14.933Q29.491 15.486 29.05 15.808Q28.609 16.13 27.832 16.13Q27.013 16.13 26.46 15.7695Q25.907 15.409 25.753 14.793L24.479 14.996Q24.675 16.06 25.5395 16.6515ZM44.5095 16.739Q45.325 17.25 46.452 17.25Q47.579 17.25 48.398 16.7425Q49.217 16.235 49.658 15.3355Q50.099 14.436 50.099 13.253Q50.099 12.084 49.6615 11.1845Q49.224 10.285 48.405 9.7775Q47.586 9.27 46.452 9.27Q45.346 9.27 44.527 9.7705Q43.708 10.271 43.26 11.167Q42.812 12.063 42.812 13.253Q42.812 14.422 43.253 15.325Q43.694 16.228 44.5095 16.739ZM51.639 9.48L52.752 9.48L52.752 10.6807Q52.8272 10.548 52.9165 10.425Q53.13 10.131 53.396 9.942Q53.69 9.704 54.061 9.578Q54.432 9.452 54.817 9.4275Q55.202 9.403 55.538 9.48L55.538 10.649Q55.146 10.544 54.677 10.593Q54.208 10.642 53.809 10.936Q53.445 11.195 53.2455 11.566Q53.046 11.937 52.969 12.3675Q52.892 12.798 52.892 13.246L52.892 17.04L51.639 17.04L51.639 9.48ZM33.936 17.04L31.626 9.473L32.865 9.48L34.552 15.01L36.253 9.48L37.352 9.48L39.046 15.01L40.74 9.48L41.972 9.48L39.662 17.04L38.626 17.04L36.799 11.293L34.972 17.04L33.936 17.04ZM48.202 15.283Q47.628 16.067 46.452 16.067Q45.311 16.067 44.723 15.297Q44.135 14.527 44.135 13.253Q44.135 12.427 44.387 11.797Q44.639 11.167 45.15 10.81Q45.661 10.453 46.452 10.453Q47.614 10.453 48.195 11.2125Q48.776 11.972 48.776 13.253Q48.776 14.499 48.202 15.283ZM13.1005 15.9655Q12.607 16.207 11.935 16.207Q11.396 16.207 11.0635 16.032Q10.731 15.857 10.5735 15.577Q10.416 15.297 10.416 14.989Q10.416 14.632 10.5805 14.3905Q10.745 14.149 11.0145 13.995Q11.284 13.841 11.592 13.743Q12.012 13.624 12.537 13.5365Q13.062 13.449 13.65 13.372Q14.0261 13.3227 14.4109 13.2706Q14.4083 13.4469 14.4025 13.6835Q14.392 14.114 14.287 14.464Q14.196 14.933 13.895 15.3285Q13.594 15.724 13.1005 15.9655Z" />
      </g>
    </g>
  </g>
</svg>