<?xml version="1.0" encoding="utf-8"?>
<svg width="24px" height="24px" viewBox="0 0 24 24" version="1.1" xmlns:xlink="http://www.w3.org/1999/xlink" xmlns="http://www.w3.org/2000/svg">
  <g id="IconsUser">
    <path d="M24 0L24 24L0 24L0 0L24 0Z" id="Vector" fill="none" fill-rule="evenodd" stroke="none" />
    <path d="M11 4.95271C11 4.39888 10.5496 3.94416 9.99922 4.00557C8.56833 4.16522 7.21621 4.66561 6.011 5.47092C4.52684 6.4626 3.37008 7.87212 2.68699 9.52123C2.00391 11.1704 1.82518 12.985 2.17342 14.7357C2.52165 16.4863 3.3812 18.0945 4.64337 19.3567C5.90555 20.6188 7.51365 21.4784 9.26434 21.8266C11.015 22.1748 12.8296 21.9961 14.4788 21.313C16.1279 20.6299 17.5374 19.4732 18.5291 17.989C19.3344 16.7838 19.8348 15.4316 19.9944 14.0008C20.0558 13.4503 19.6011 13 19.0473 13L12.9407 13.2458C11.8367 13.2409 11 12.105 11 11.001C11 8.61771 11 4.95271 11 4.95271Z" id="👑-Edit-Color" fill="#D3D5DA" fill-rule="evenodd" stroke="none" />
    <path d="M21.0446 11C21.6 11 22.056 10.5484 21.9944 9.99653C21.9003 9.15251 21.6876 8.32429 21.3613 7.53663C20.9065 6.43861 20.2399 5.44092 19.3995 4.60053C18.559 3.76014 17.5614 3.0935 16.4634 2.63869C15.6757 2.31243 14.8475 2.09976 14.0036 2.00559C13.4516 1.94401 13 2.4 13 2.95537L13 9.001C13 10.105 13.8364 11.2416 14.9404 11.2465C17.321 11.2571 21.0446 11 21.0446 11Z" id="👑-Edit-Color" fill="#121826" fill-rule="evenodd" stroke="none" />
  </g>
</svg>