<?xml version="1.0" encoding="utf-8"?>
<svg width="16px" height="16px" viewBox="0 0 16 16" version="1.1" xmlns:xlink="http://www.w3.org/1999/xlink" xmlns="http://www.w3.org/2000/svg">
  <g id="Icon">
    <g id="Camera">
      <path d="M16 0L16 16L0 16L0 0L16 0Z" id="Vector" fill="none" fill-rule="evenodd" stroke="none" />
      <path d="M1.33333 5.56155C1.33333 4.64382 1.95793 3.84385 2.84826 3.62127L4 3.33333L4.93751 1.92707C5.1848 1.55613 5.60111 1.33333 6.04691 1.33333L9.95307 1.33333C10.3989 1.33333 10.8152 1.55613 11.0625 1.92707L12 3.33333L13.1517 3.62127C14.0421 3.84385 14.6667 4.64382 14.6667 5.56155L14.6667 12.6667C14.6667 13.7713 13.7713 14.6667 12.6667 14.6667L3.33333 14.6667C2.22877 14.6667 1.33333 13.7713 1.33333 12.6667L1.33333 5.56155Z" id="👑-Edit-Color" fill="#928FFF" fill-rule="evenodd" stroke="none" />
      <path d="M12 6.66667C12.3682 6.66667 12.6667 6.36819 12.6667 6C12.6667 5.63181 12.3682 5.33333 12 5.33333C11.6318 5.33333 11.3333 5.63181 11.3333 6C11.3333 6.36819 11.6318 6.66667 12 6.66667ZM8 11.3333C9.47273 11.3333 10.6667 10.1394 10.6667 8.66667C10.6667 7.19393 9.47273 6 8 6C6.52724 6 5.33333 7.19393 5.33333 8.66667C5.33333 10.1394 6.52724 11.3333 8 11.3333Z" id="👑-Edit-Color" fill="#4A44C6" fill-rule="evenodd" stroke="none" />
    </g>
  </g>
</svg>