<?xml version="1.0" encoding="utf-8"?>
<svg width="20px" height="20px" viewBox="0 0 20 20" version="1.1" xmlns:xlink="http://www.w3.org/1999/xlink" xmlns="http://www.w3.org/2000/svg">
  <g id="Icon" transform="translate(-2 -2)">
    <g id="IconsCog" transform="translate(2 2)">
      <path d="M10.0001 0C8.8955 0 8.0001 0.89543 8.0001 2C8.0001 2.14834 7.89944 2.27718 7.75703 2.3187C7.19521 2.48248 6.65895 2.70622 6.15564 2.98253C6.02525 3.05412 5.86254 3.03411 5.75736 2.92893C4.97631 2.14788 3.70998 2.14788 2.92893 2.92893C2.14788 3.70998 2.14788 4.97631 2.92893 5.75736C3.03411 5.86254 3.05412 6.02525 2.98253 6.15564C2.70623 6.65893 2.4825 7.19516 2.31872 7.75695C2.2772 7.89937 2.14835 8 2 8C0.89543 8 0 8.8954 0 10C0 11.1046 0.89543 12 2 12C2.14835 12 2.2772 12.1006 2.31872 12.2431C2.4825 12.8048 2.70623 13.3411 2.98253 13.8444C3.05412 13.9747 3.03411 14.1375 2.92893 14.2426C2.14788 15.0237 2.14788 16.29 2.92893 17.0711C3.70998 17.8521 4.97631 17.8521 5.75736 17.0711C5.86254 16.9659 6.02525 16.9459 6.15564 17.0175C6.65895 17.2938 7.19521 17.5175 7.75703 17.6813C7.89944 17.7228 8.0001 17.8517 8.0001 18C8.0001 19.1046 8.8955 20 10.0001 20C11.1046 20 12.0001 19.1046 12.0001 18C12.0001 17.8516 12.1007 17.7228 12.2431 17.6813C12.8049 17.5175 13.3411 17.2938 13.8444 17.0175C13.9747 16.9459 14.1375 16.9659 14.2426 17.0711C15.0237 17.8521 16.29 17.8521 17.0711 17.0711C17.8521 16.29 17.8521 15.0237 17.0711 14.2426C16.9659 14.1375 16.9459 13.9747 17.0175 13.8444C17.2938 13.3411 17.5175 12.8048 17.6813 12.2431C17.7228 12.1006 17.8517 12 18 12C19.1046 12 20 11.1046 20 10C20 8.8954 19.1046 8 18 8C17.8517 8 17.7228 7.89937 17.6813 7.75695C17.5175 7.19516 17.2938 6.65893 17.0175 6.15564C16.9459 6.02525 16.9659 5.86254 17.0711 5.75736C17.8521 4.97631 17.8521 3.70998 17.0711 2.92893C16.29 2.14788 15.0237 2.14788 14.2426 2.92893C14.1375 3.03411 13.9748 3.05412 13.8444 2.98253C13.3411 2.70625 12.8049 2.48252 12.2431 2.31875C12.1007 2.27722 12.0001 2.14836 12.0001 2C12.0001 0.89543 11.1046 0 10.0001 0Z" id="👑-Edit-Color" fill="#928FFF" fill-rule="evenodd" stroke="none" />
      <path d="M10.0001 13C11.657 13 13.0001 11.6569 13.0001 10C13.0001 8.3431 11.657 7 10.0001 7C8.3433 7 7.00012 8.3431 7.00012 10C7.00012 11.6569 8.3433 13 10.0001 13Z" id="👑-Edit-Color" fill="#4A44C6" fill-rule="evenodd" stroke="none" />
    </g>
  </g>
</svg>