<?xml version="1.0" encoding="utf-8"?>
<svg width="8px" height="6px" viewBox="0 0 8 6" version="1.1" xmlns:xlink="http://www.w3.org/1999/xlink" xmlns="http://www.w3.org/2000/svg">
  <g id="Triangle">
    <path d="M4.83122 1.24683L6.96457 4.44685Q6.98327 4.4749 7.00003 4.50415Q7.0168 4.53339 7.03156 4.5637Q7.04631 4.59401 7.05899 4.62525Q7.07167 4.65648 7.08222 4.6885Q7.09276 4.72052 7.10112 4.75318Q7.10949 4.78583 7.11563 4.81898Q7.12177 4.85212 7.12567 4.88561Q7.12956 4.91909 7.13119 4.95276Q7.13281 4.98643 7.13217 5.02014Q7.13152 5.05384 7.12861 5.08743Q7.12569 5.12101 7.12052 5.15432Q7.11534 5.18763 7.10794 5.22052Q7.10053 5.25341 7.09092 5.28572Q7.08131 5.31803 7.06955 5.34962Q7.05779 5.38121 7.04392 5.41194Q7.03005 5.44267 7.01414 5.47239Q6.99824 5.50211 6.98036 5.53069Q6.96249 5.55927 6.94273 5.58658Q6.92297 5.61389 6.90141 5.63981Q6.87986 5.66573 6.8566 5.69013Q6.83335 5.71454 6.8085 5.73732Q6.78366 5.7601 6.75733 5.78116Q6.73101 5.80222 6.70332 5.82145Q6.67563 5.84068 6.64672 5.85801Q6.6178 5.87533 6.58778 5.89066Q6.55776 5.906 6.52677 5.91927Q6.49578 5.93255 6.46397 5.9437Q6.43216 5.95486 6.39967 5.96385Q6.36718 5.97283 6.33416 5.97961Q6.30114 5.98639 6.26773 5.99092Q6.23433 5.99546 6.2007 5.99773Q6.16706 6 6.13335 6L1.86665 6Q1.83294 6 1.7993 5.99773Q1.76567 5.99546 1.73227 5.99092Q1.69886 5.98639 1.66584 5.97961Q1.63282 5.97283 1.60033 5.96385Q1.56784 5.95486 1.53603 5.9437Q1.50422 5.93255 1.47323 5.91927Q1.44224 5.906 1.41222 5.89066Q1.3822 5.87533 1.35328 5.85801Q1.32437 5.84068 1.29668 5.82145Q1.26899 5.80222 1.24267 5.78116Q1.21634 5.7601 1.1915 5.73732Q1.16665 5.71454 1.1434 5.69013Q1.12014 5.66573 1.09859 5.63981Q1.07703 5.61389 1.05727 5.58658Q1.03751 5.55927 1.01964 5.53069Q1.00176 5.50211 0.985856 5.47239Q0.969949 5.44267 0.956083 5.41194Q0.942216 5.38121 0.930452 5.34962Q0.918688 5.31803 0.909081 5.28572Q0.899473 5.25341 0.892065 5.22052Q0.884658 5.18763 0.879484 5.15432Q0.874311 5.12101 0.871394 5.08743Q0.868478 5.05384 0.867832 5.02014Q0.867186 4.98644 0.868814 4.95276Q0.870441 4.91909 0.874335 4.88561Q0.878229 4.85212 0.884371 4.81898Q0.890513 4.78583 0.898876 4.75318Q0.907239 4.72052 0.917784 4.6885Q0.928329 4.65648 0.941008 4.62525Q0.953687 4.59401 0.968444 4.5637Q0.9832 4.53339 0.999966 4.50415Q1.01673 4.4749 1.03543 4.44685L3.16878 1.24683Q3.20286 1.19571 3.24295 1.14915Q3.28304 1.10259 3.32853 1.06129Q3.37402 1.01999 3.42423 0.984582Q3.47444 0.949171 3.52861 0.92018Q3.58278 0.891189 3.6401 0.869054Q3.69741 0.84692 3.75701 0.831975Q3.8166 0.817031 3.87758 0.809502Q3.93856 0.801973 4 0.801973Q4.06144 0.801973 4.12242 0.809502Q4.1834 0.817031 4.24299 0.831975Q4.30259 0.84692 4.3599 0.869054Q4.41722 0.891189 4.47139 0.92018Q4.52556 0.949171 4.57577 0.984582Q4.62598 1.01999 4.67147 1.06129Q4.71696 1.10259 4.75705 1.14915Q4.79714 1.19571 4.83122 1.24683L4.83122 1.24683Z" id="Triangle" fill="#8EE04E" fill-rule="evenodd" stroke="none" />
  </g>
</svg>