<?xml version="1.0" standalone="no"?><!DOCTYPE svg PUBLIC "-//W3C//DTD SVG 1.1//EN" "http://www.w3.org/Graphics/SVG/1.1/DTD/svg11.dtd">
<svg t="1685261317352" class="icon" viewBox="0 0 1024 1024" version="1.1"
    xmlns="http://www.w3.org/2000/svg" p-id="1563"
    xmlns:xlink="http://www.w3.org/1999/xlink" width="48" height="48">
    <path d="M291.2 171.712c-65.877333 0-119.466667 53.610667-119.466667 119.488s53.589333 119.488 119.466667 119.488 119.488-53.610667 119.488-119.488C410.688 225.301333 357.077333 171.712 291.2 171.712z" p-id="1564" fill="#2c2c2c"></path>
    <path d="M855.466667 0 168.533333 0C75.605333 0 0 75.605333 0 168.554667L0 806.4l0 0.021333L0 855.466667C0 948.352 75.605333 1024 168.533333 1024l686.976 0C948.352 1024 1024 948.352 1024 855.466667L1024 168.554667C1024 75.605333 948.394667 0 855.466667 0zM981.269333 632.192l-282.432-282.453333c-8-8-22.165333-8-30.165333 0L389.333333 629.034667l-95.317333-95.296c-8-8.042667-22.186667-8.042667-30.186667 0L42.688 754.901333 42.688 168.554667c0-69.397333 56.448-125.866667 125.845333-125.866667l686.933333 0c69.376 0 125.802667 56.469333 125.802667 125.866667L981.269333 632.192z" p-id="1565" fill="#2c2c2c"></path>
</svg>