<?xml version="1.0" standalone="no"?><!DOCTYPE svg PUBLIC "-//W3C//DTD SVG 1.1//EN" "http://www.w3.org/Graphics/SVG/1.1/DTD/svg11.dtd">
<svg t="1684412427020" class="icon" viewBox="0 0 1024 1024" version="1.1"
    xmlns="http://www.w3.org/2000/svg" p-id="1658"
    xmlns:xlink="http://www.w3.org/1999/xlink" width="48" height="48">
    <path d="M764.928 447.488l-508.928 0 0-163.84q0-57.344 19.968-108.544t54.272-89.6 80.896-60.416 99.84-22.016 99.84 22.016 80.896 60.416 53.76 89.6 19.456 108.544l0 163.84zM510.976 832.512q-52.224 0-98.816-15.36t-80.896-43.52-54.784-68.608-20.48-90.624l0-70.656 0-30.72 508.928 0 0 101.376q0 40.96-19.968 79.872t-54.784 69.632-80.896 49.664-98.304 18.944zM965.632 512q29.696 0 43.008 7.168t13.312 24.576q0 22.528-13.824 28.16t-35.328 5.632l-17.408 0q-5.12 49.152-17.408 98.304-11.264 43.008-30.208 91.648t-48.64 91.648q-57.344 78.848-148.48 121.344t-200.704 42.496q-108.544 0-195.072-34.304t-154.112-116.224q-33.792-40.96-53.248-92.16t-29.696-96.256q-11.264-52.224-15.36-105.472l-12.288 0q-33.792-1.024-41.472-9.216t-7.68-28.672q0-18.432 16.384-23.552t41.984-5.12q25.6-1.024 46.08-0.512t32.768-0.512q21.504 0 32.768 3.072t15.872 9.216 4.608 17.408l0 25.6q0 9.216-3.584 28.672t-1.536 47.616 12.288 65.536 37.888 81.408q26.624 44.032 64.512 67.072t76.8 32.768 74.24 10.24 57.856 0.512q35.84-1.024 70.144-2.56t65.536-9.728 59.904-25.088 54.272-49.664q27.648-34.816 41.472-68.608t19.456-63.488 6.144-55.808 1.536-47.616q1.024-27.648 3.072-41.472t8.192-18.944 17.408-5.12l29.696 0 78.848 0z" p-id="1659"></path>
</svg>