<?xml version="1.0" standalone="no"?><!DOCTYPE svg PUBLIC "-//W3C//DTD SVG 1.1//EN" "http://www.w3.org/Graphics/SVG/1.1/DTD/svg11.dtd"><svg t="1675061337035" class="icon" viewBox="0 0 1024 1024" version="1.1" xmlns="http://www.w3.org/2000/svg" p-id="4562" xmlns:xlink="http://www.w3.org/1999/xlink" width="200" height="200"><path d="M804.9 256H219.3c-15 0-27.2 12.2-27.2 27.2v457.4c0 15 12.2 27.2 27.2 27.2H805c15 0 27.2-12.2 27.2-27.2V283.2c0-15.1-12.2-27.2-27.3-27.2z m-521.6 64.2h457.6c15 0 27.2 12.2 27.2 27.2v275.2L601.8 456.3c-12.4-12.4-32.7-12.4-45.1 0-0.9 0.9-1.8 1.9-2.6 2.9-1.5 1.3-2.9 2.7-4.1 4.3l-109.1 139-60.2-34.8c-13.1-7.6-29.6-4.7-39.5 6.1L256 658.9V347.5c0-15.1 12.2-27.3 27.3-27.3z m17.6 384l69-69 60.9 35.2c1.9 1.1 3.8 1.9 5.8 2.6 12.9 5.4 28.5 1.9 37.5-9.7l107.6-136.9L755.3 700c-4.2 2.6-9.1 4.2-14.5 4.2H300.9z" fill="" p-id="4563"></path><path d="M384.1 514.2c36.4 0 66-29.5 66-66s-29.5-66-66-66-66 29.5-66 66 29.5 66 66 66z m0-90c13.3 0 24 10.7 24 24s-10.7 24-24 24-24-10.7-24-24 10.7-24 24-24z" fill="" p-id="4564"></path></svg>